M48
;Layer_Color=9474304
;FILE_FORMAT=4:4
METRIC,TZ
;TYPE=PLATED
T1F00S00C0.2000
T2F00S00C0.7112
T3F00S00C0.8000
T4F00S00C0.8128
T5F00S00C0.9652
T6F00S00C1.0000
%
T01
X845000Y418000
X862000Y439000
X886000Y585000
X735000Y527000
Y502000
X682000Y736000
X503490Y750000
X477000Y749000
X571000Y625000
X567000Y831000
X599000
X668000Y833570
X684000Y890000
X605000Y959000
X576000
X520400Y964692
X495000Y890000
X513000Y795000
X527000
X800000Y821000
X870800Y860800
X1125000Y821000
X1163800Y873800
X1189200Y942000
X1113570
X1086000Y961390
X1240028Y892810
X1199000Y821000
T02
X980000Y290000
X884936Y728672
X781740Y867150
T03
X398000Y412000
X421000
X444000
X467000
X490000
X513000
X536000
X559000
X582000
X605000
X628000
X651000
Y565000
X628000
X605000
X582000
X559000
X536000
X513000
X490000
X467000
X444000
X421000
X398000
X375000
X352000
X329000
Y412000
X352000
X375000
X804530Y1230000
X830000Y1230000
X779130Y1230000
X753730
T04
X1240400Y665000
X1265800
X970000Y550000
Y524600
X340000Y785000
Y810400
Y835800
T05
X420000Y289200
Y340000
X485000
X515000
Y289200
X485000
X580000
X605000
Y340000
X580000
X670000
Y289200
T06
X1250000Y305000
Y370000
X1240000Y450000
Y610000
X1025000Y575000
Y485000
M30
