G04*
G04 #@! TF.GenerationSoftware,Altium Limited,Altium Designer,18.0.7 (293)*
G04*
G04 Layer_Physical_Order=1*
G04 Layer_Color=255*
%FSLAX25Y25*%
%MOIN*%
G70*
G01*
G75*
%ADD10O,0.04134X0.01654*%
%ADD11R,0.04134X0.01654*%
%ADD12R,0.06000X0.06000*%
%ADD13R,0.06000X0.05000*%
%ADD14R,0.06000X0.06000*%
%ADD15R,0.05000X0.06000*%
%ADD16C,0.01968*%
%ADD17C,0.03937*%
%ADD18C,0.05000*%
%ADD19C,0.01181*%
%ADD20C,0.02000*%
%ADD21C,0.01575*%
%ADD22C,0.01500*%
%ADD23C,0.03000*%
%ADD24R,0.03937X0.15748*%
%ADD25R,0.07874X0.07874*%
%ADD26R,0.11811X0.11811*%
%ADD27C,0.06000*%
%ADD28C,0.06200*%
%ADD29C,0.04331*%
%ADD30C,0.05000*%
%ADD31R,0.05000X0.05000*%
%ADD32R,0.05000X0.05000*%
%ADD33R,0.06299X0.06299*%
%ADD34C,0.02800*%
%ADD35C,0.01575*%
%ADD36C,0.01968*%
G36*
X310034Y486128D02*
X309847Y485930D01*
X309676Y485728D01*
X309521Y485522D01*
X309382Y485311D01*
X309259Y485095D01*
X309153Y484875D01*
X309062Y484651D01*
X308988Y484422D01*
X308930Y484188D01*
X308888Y483951D01*
X306443Y486396D01*
X306680Y486438D01*
X306914Y486496D01*
X307143Y486570D01*
X307367Y486661D01*
X307587Y486767D01*
X307803Y486890D01*
X308014Y487029D01*
X308220Y487184D01*
X308422Y487355D01*
X308620Y487542D01*
X310034Y486128D01*
D02*
G37*
G36*
X440411Y478767D02*
X440462Y478098D01*
X440549Y477508D01*
X440669Y476996D01*
X440824Y476563D01*
X441013Y476208D01*
X441237Y475933D01*
X441495Y475736D01*
X441787Y475618D01*
X442114Y475578D01*
X435839D01*
X435956Y475618D01*
X436061Y475736D01*
X436154Y475933D01*
X436234Y476208D01*
X436302Y476563D01*
X436358Y476996D01*
X436432Y478098D01*
X436457Y479516D01*
X440394D01*
X440411Y478767D01*
D02*
G37*
G36*
X430996D02*
X431086Y477508D01*
X431165Y476996D01*
X431267Y476563D01*
X431391Y476208D01*
X431538Y475933D01*
X431707Y475736D01*
X431899Y475618D01*
X432114Y475578D01*
X425839D01*
X426068Y475618D01*
X426274Y475736D01*
X426455Y475933D01*
X426612Y476208D01*
X426745Y476563D01*
X426854Y476996D01*
X426938Y477508D01*
X426999Y478098D01*
X427047Y479516D01*
X430984D01*
X430996Y478767D01*
D02*
G37*
G36*
X146909D02*
X146966Y478098D01*
X147062Y477508D01*
X147196Y476996D01*
X147369Y476563D01*
X147580Y476208D01*
X147829Y475933D01*
X148117Y475736D01*
X148443Y475618D01*
X148807Y475578D01*
X142532D01*
X142612Y475618D01*
X142683Y475736D01*
X142746Y475933D01*
X142801Y476208D01*
X142848Y476563D01*
X142915Y477508D01*
X142953Y479516D01*
X146890D01*
X146909Y478767D01*
D02*
G37*
G36*
X137650D02*
X137743Y477508D01*
X137825Y476996D01*
X137930Y476563D01*
X138059Y476208D01*
X138211Y475933D01*
X138386Y475736D01*
X138585Y475618D01*
X138807Y475578D01*
X132532D01*
X132754Y475618D01*
X132953Y475736D01*
X133128Y475933D01*
X133280Y476208D01*
X133408Y476563D01*
X133514Y476996D01*
X133596Y477508D01*
X133654Y478098D01*
X133701Y479516D01*
X137638D01*
X137650Y478767D01*
D02*
G37*
G36*
X421580Y478705D02*
X421769Y476146D01*
X421839Y475870D01*
X421920Y475673D01*
X422012Y475555D01*
X422114Y475516D01*
X415839D01*
X416181Y475555D01*
X416486Y475673D01*
X416756Y475870D01*
X416990Y476146D01*
X417188Y476500D01*
X417350Y476933D01*
X417476Y477445D01*
X417566Y478035D01*
X417620Y478705D01*
X417638Y479453D01*
X421575D01*
X421580Y478705D01*
D02*
G37*
G36*
X128078D02*
X128189Y476933D01*
X128255Y476500D01*
X128336Y476146D01*
X128431Y475870D01*
X128542Y475673D01*
X128667Y475555D01*
X128807Y475516D01*
X122532D01*
X122836Y475555D01*
X123108Y475673D01*
X123349Y475870D01*
X123557Y476146D01*
X123733Y476500D01*
X123878Y476933D01*
X123990Y477445D01*
X124070Y478035D01*
X124118Y478705D01*
X124134Y479453D01*
X128071D01*
X128078Y478705D01*
D02*
G37*
G36*
X490878Y474958D02*
X491203Y474947D01*
X492153Y474941D01*
Y469941D01*
X491203Y469935D01*
X490878Y469912D01*
Y469303D01*
X497153D01*
X497032Y469253D01*
X496924Y469103D01*
X496828Y468853D01*
X496745Y468503D01*
X496675Y468053D01*
X496573Y466853D01*
X496522Y465253D01*
X496516Y464303D01*
X491516D01*
X491509Y465253D01*
X491286Y468503D01*
X491203Y468853D01*
X491108Y469103D01*
X490999Y469253D01*
X490878Y469303D01*
X490828Y469424D01*
X490678Y469533D01*
X490428Y469628D01*
X490078Y469711D01*
X489628Y469781D01*
X489336Y469806D01*
X487953Y469711D01*
X487603Y469628D01*
X487353Y469533D01*
X487203Y469424D01*
X487153Y469303D01*
Y469924D01*
X486828Y469935D01*
X485878Y469941D01*
Y474941D01*
X486828Y474947D01*
X487153Y474970D01*
Y475578D01*
X487203Y475457D01*
X487353Y475349D01*
X487603Y475253D01*
X487953Y475171D01*
X488403Y475100D01*
X488695Y475075D01*
X490078Y475171D01*
X490428Y475253D01*
X490678Y475349D01*
X490828Y475457D01*
X490878Y475578D01*
Y474958D01*
D02*
G37*
G36*
X207382Y475578D02*
X206710Y474879D01*
X205579Y473529D01*
X205119Y472878D01*
X204730Y472242D01*
X204412Y471622D01*
X204165Y471019D01*
X203988Y470431D01*
X203882Y469859D01*
X203846Y469303D01*
X198846Y474303D01*
Y469941D01*
X197896Y469935D01*
X197571Y469912D01*
Y469303D01*
X197521Y469424D01*
X197371Y469533D01*
X197121Y469628D01*
X196771Y469711D01*
X196321Y469781D01*
X196029Y469806D01*
X194646Y469711D01*
X194296Y469628D01*
X194046Y469533D01*
X193896Y469424D01*
X193846Y469303D01*
Y469924D01*
X193521Y469935D01*
X192571Y469941D01*
Y474941D01*
X193521Y474947D01*
X193846Y474970D01*
Y475578D01*
X193896Y475457D01*
X194046Y475349D01*
X194296Y475253D01*
X194646Y475171D01*
X195096Y475100D01*
X195388Y475075D01*
X196771Y475171D01*
X197121Y475253D01*
X197371Y475349D01*
X197521Y475457D01*
X197571Y475578D01*
Y474958D01*
X197896Y474947D01*
X198204Y474945D01*
X197571Y475578D01*
X198127Y475614D01*
X198699Y475720D01*
X199286Y475897D01*
X199890Y476144D01*
X200510Y476462D01*
X201145Y476851D01*
X201797Y477311D01*
X202464Y477841D01*
X203846Y479114D01*
X207382Y475578D01*
D02*
G37*
G36*
X480878Y469303D02*
X480828Y469424D01*
X480678Y469533D01*
X480428Y469628D01*
X480078Y469711D01*
X479628Y469781D01*
X478428Y469884D01*
X476828Y469935D01*
X475878Y469941D01*
Y474941D01*
X476828Y474947D01*
X480078Y475171D01*
X480428Y475253D01*
X480678Y475349D01*
X480828Y475457D01*
X480878Y475578D01*
Y469303D01*
D02*
G37*
G36*
X187571D02*
X187521Y469424D01*
X187371Y469533D01*
X187121Y469628D01*
X186771Y469711D01*
X186321Y469781D01*
X185121Y469884D01*
X183521Y469935D01*
X182571Y469941D01*
Y474941D01*
X183521Y474947D01*
X186771Y475171D01*
X187121Y475253D01*
X187371Y475349D01*
X187521Y475457D01*
X187571Y475578D01*
Y469303D01*
D02*
G37*
G36*
X435669Y488724D02*
X435645Y488543D01*
Y479044D01*
X435630Y478132D01*
X435558Y477074D01*
X435509Y476690D01*
X435453Y476397D01*
X435447Y476378D01*
X435039D01*
Y475639D01*
X435038Y475634D01*
X435039Y475622D01*
Y475596D01*
X435036Y475578D01*
X435039Y475561D01*
Y469321D01*
X435036Y469303D01*
X435036Y469303D01*
X435036Y469302D01*
X435039Y469285D01*
Y468504D01*
X435422D01*
X435450Y468383D01*
X435661Y465321D01*
Y463150D01*
X431427Y458916D01*
X426473D01*
X422292Y463097D01*
Y465383D01*
X422335Y466744D01*
X422433Y467894D01*
X422494Y468286D01*
X422531Y468441D01*
X422913D01*
Y469222D01*
X422917Y469239D01*
X422917Y469240D01*
X422917Y469240D01*
X422913Y469258D01*
Y475498D01*
X422917Y475516D01*
X422915Y475526D01*
X422917Y475536D01*
X422913Y475550D01*
Y476315D01*
X422561D01*
X422386Y478694D01*
Y488543D01*
X422362Y488724D01*
Y496178D01*
X426260D01*
Y488724D01*
X426236Y488543D01*
Y479285D01*
X426197Y478153D01*
X426142Y477614D01*
X426067Y477159D01*
X425978Y476802D01*
X425883Y476550D01*
X425803Y476410D01*
X425778Y476383D01*
X425750Y476378D01*
X425039D01*
Y475596D01*
X425036Y475578D01*
X425039Y475561D01*
Y468504D01*
X432913D01*
Y475561D01*
X432917Y475578D01*
X432913Y475596D01*
Y476378D01*
X432214D01*
X432204Y476389D01*
X432128Y476532D01*
X432038Y476788D01*
X431954Y477149D01*
X431884Y477598D01*
X431798Y478802D01*
X431795Y478969D01*
Y488543D01*
X431772Y488724D01*
Y496178D01*
X435669D01*
Y488724D01*
D02*
G37*
G36*
X142165Y488803D02*
X142142Y488622D01*
Y479081D01*
X142113Y477544D01*
X142048Y476643D01*
X142014Y476378D01*
X141732D01*
Y475596D01*
X141729Y475578D01*
X141732Y475561D01*
Y475540D01*
X141730Y475527D01*
X141732Y475520D01*
Y469321D01*
X141729Y469303D01*
X141729Y469303D01*
X141729Y469302D01*
X141732Y469285D01*
Y468504D01*
X142115D01*
X142143Y468383D01*
X142353Y465321D01*
Y459943D01*
X138427Y456016D01*
X132073D01*
X128985Y459104D01*
Y465383D01*
X129028Y466744D01*
X129126Y467894D01*
X129187Y468286D01*
X129224Y468441D01*
X129606D01*
Y469222D01*
X129610Y469239D01*
X129610Y469240D01*
X129610Y469240D01*
X129606Y469258D01*
Y475498D01*
X129610Y475516D01*
X129606Y475533D01*
Y476315D01*
X129127D01*
X129109Y476367D01*
X129044Y476650D01*
X128988Y477019D01*
X128882Y478714D01*
Y488622D01*
X128858Y488803D01*
Y496178D01*
X132756D01*
Y479961D01*
X132890D01*
Y479276D01*
X132852Y478151D01*
X132799Y477611D01*
X132726Y477154D01*
X132639Y476795D01*
X132547Y476541D01*
X132468Y476400D01*
X132451Y476379D01*
X132442Y476378D01*
X131732D01*
Y475596D01*
X131729Y475578D01*
X131732Y475561D01*
Y468504D01*
X139606D01*
Y475561D01*
X139610Y475578D01*
X139606Y475596D01*
Y476378D01*
X138897D01*
X138888Y476379D01*
X138870Y476400D01*
X138792Y476541D01*
X138700Y476795D01*
X138613Y477154D01*
X138541Y477601D01*
X138452Y478804D01*
X138449Y478988D01*
Y488465D01*
X138354Y489184D01*
X138268Y489393D01*
Y496178D01*
X142165D01*
Y488803D01*
D02*
G37*
G36*
X442164Y475457D02*
X442314Y475349D01*
X442564Y475253D01*
X442914Y475171D01*
X443364Y475100D01*
X444564Y474998D01*
X446164Y474947D01*
X447114Y474941D01*
Y469941D01*
X446164Y469935D01*
X442914Y469711D01*
X442564Y469628D01*
X442314Y469533D01*
X442164Y469424D01*
X442114Y469303D01*
X441993Y469253D01*
X441884Y469103D01*
X441789Y468853D01*
X441706Y468503D01*
X441636Y468053D01*
X441534Y466853D01*
X441483Y465253D01*
X441476Y464303D01*
X436476D01*
X436470Y465253D01*
X436247Y468503D01*
X436164Y468853D01*
X436068Y469103D01*
X435960Y469253D01*
X435839Y469303D01*
X442114D01*
Y475578D01*
X442164Y475457D01*
D02*
G37*
G36*
X148857D02*
X149007Y475349D01*
X149257Y475253D01*
X149607Y475171D01*
X150057Y475100D01*
X151257Y474998D01*
X152857Y474947D01*
X153807Y474941D01*
Y469941D01*
X152857Y469935D01*
X149607Y469711D01*
X149257Y469628D01*
X149007Y469533D01*
X148857Y469424D01*
X148807Y469303D01*
X148686Y469253D01*
X148577Y469103D01*
X148482Y468853D01*
X148399Y468503D01*
X148329Y468053D01*
X148227Y466853D01*
X148176Y465253D01*
X148169Y464303D01*
X143169D01*
X143163Y465253D01*
X142940Y468503D01*
X142857Y468853D01*
X142761Y469103D01*
X142653Y469253D01*
X142532Y469303D01*
X148807D01*
Y475578D01*
X148857Y475457D01*
D02*
G37*
G36*
X421993Y469190D02*
X421884Y469040D01*
X421789Y468790D01*
X421706Y468440D01*
X421636Y467990D01*
X421534Y466790D01*
X421483Y465190D01*
X421476Y464240D01*
X416476D01*
X416470Y465190D01*
X416247Y468440D01*
X416164Y468790D01*
X416068Y469040D01*
X415960Y469190D01*
X415839Y469240D01*
X422114D01*
X421993Y469190D01*
D02*
G37*
G36*
X128686D02*
X128577Y469040D01*
X128482Y468790D01*
X128399Y468440D01*
X128329Y467990D01*
X128227Y466790D01*
X128176Y465190D01*
X128169Y464240D01*
X123169D01*
X123163Y465190D01*
X122940Y468440D01*
X122857Y468790D01*
X122761Y469040D01*
X122653Y469190D01*
X122532Y469240D01*
X128807D01*
X128686Y469190D01*
D02*
G37*
G36*
X500695Y367629D02*
X500918Y364378D01*
X501001Y364029D01*
X501097Y363778D01*
X501205Y363629D01*
X501327Y363579D01*
X495051D01*
X495173Y363629D01*
X495281Y363778D01*
X495377Y364029D01*
X495459Y364378D01*
X495530Y364828D01*
X495632Y366028D01*
X495683Y367629D01*
X495689Y368579D01*
X500689D01*
X500695Y367629D01*
D02*
G37*
G36*
X455114Y364932D02*
X455463Y364596D01*
X456199Y363971D01*
X456525Y363743D01*
X456822Y363573D01*
X457091Y363458D01*
X457331Y363400D01*
X457542Y363399D01*
X457725Y363455D01*
X457880Y363566D01*
X457293Y362979D01*
X457662Y362654D01*
X457881Y362518D01*
X458057Y362437D01*
X458190Y362409D01*
X456220Y360440D01*
X456193Y360573D01*
X456111Y360749D01*
X455975Y360968D01*
X455785Y361231D01*
X455676Y361362D01*
X455063Y360750D01*
X455175Y360905D01*
X455231Y361088D01*
X455230Y361299D01*
X455172Y361539D01*
X455057Y361808D01*
X454886Y362105D01*
X454659Y362431D01*
X454375Y362785D01*
X453660Y363554D01*
X453499Y363717D01*
X454913Y365131D01*
X455114Y364932D01*
D02*
G37*
G36*
X501104Y357264D02*
X500906Y357146D01*
X500730Y356949D01*
X500578Y356673D01*
X500450Y356319D01*
X500345Y355886D01*
X500263Y355374D01*
X500204Y354784D01*
X500157Y353366D01*
X496220D01*
X496209Y354114D01*
X496115Y355374D01*
X496033Y355886D01*
X495928Y356319D01*
X495800Y356673D01*
X495648Y356949D01*
X495472Y357146D01*
X495273Y357264D01*
X495051Y357303D01*
X501327D01*
X501104Y357264D01*
D02*
G37*
G36*
X461104D02*
X460906Y357146D01*
X460730Y356949D01*
X460578Y356673D01*
X460450Y356319D01*
X460345Y355886D01*
X460263Y355374D01*
X460204Y354784D01*
X460157Y353366D01*
X456220D01*
X456209Y354114D01*
X456115Y355374D01*
X456033Y355886D01*
X455928Y356319D01*
X455800Y356673D01*
X455648Y356949D01*
X455472Y357146D01*
X455273Y357264D01*
X455051Y357303D01*
X461327D01*
X461104Y357264D01*
D02*
G37*
G36*
X500166Y346235D02*
X500295Y344463D01*
X500373Y344030D01*
X500468Y343675D01*
X500580Y343400D01*
X500709Y343203D01*
X500856Y343085D01*
X501019Y343046D01*
X495044D01*
X495267Y343085D01*
X495467Y343203D01*
X495644Y343400D01*
X495797Y343675D01*
X495926Y344030D01*
X496032Y344463D01*
X496114Y344975D01*
X496173Y345565D01*
X496220Y346983D01*
X500157D01*
X500166Y346235D01*
D02*
G37*
G36*
X500826Y338030D02*
X500653Y337912D01*
X500500Y337715D01*
X500367Y337440D01*
X500255Y337085D01*
X500163Y336652D01*
X500092Y336140D01*
X500041Y335550D01*
X500000Y334133D01*
X496063D01*
X496053Y334881D01*
X495900Y336652D01*
X495808Y337085D01*
X495696Y337440D01*
X495563Y337715D01*
X495410Y337912D01*
X495237Y338030D01*
X495044Y338070D01*
X501019D01*
X500826Y338030D01*
D02*
G37*
G36*
X493618Y264299D02*
X493089Y263748D01*
X492199Y262682D01*
X491837Y262167D01*
X491530Y261663D01*
X491280Y261171D01*
X491085Y260692D01*
X490946Y260224D01*
X490862Y259767D01*
X490835Y259323D01*
X485858Y264299D01*
X486303Y264327D01*
X486759Y264410D01*
X487227Y264550D01*
X487707Y264744D01*
X488199Y264995D01*
X488702Y265301D01*
X489217Y265663D01*
X489745Y266081D01*
X490835Y267083D01*
X493618Y264299D01*
D02*
G37*
G36*
X503678Y106122D02*
X113622D01*
X113622Y496178D01*
X123346D01*
Y488803D01*
X123323Y488622D01*
Y479072D01*
X123316Y478742D01*
X123271Y478118D01*
X123198Y477585D01*
X123102Y477146D01*
X122989Y476807D01*
X122871Y476570D01*
X122766Y476430D01*
X122686Y476365D01*
X122621Y476337D01*
X122453Y476315D01*
X121732D01*
Y475533D01*
X121729Y475516D01*
X121732Y475498D01*
Y469258D01*
X121729Y469240D01*
X121729Y469240D01*
X121729Y469239D01*
X121732Y469222D01*
Y468441D01*
X122115D01*
X122143Y468320D01*
X122353Y465258D01*
Y457731D01*
X122467Y456873D01*
X122798Y456073D01*
X123325Y455386D01*
X128355Y450355D01*
X129042Y449828D01*
X129842Y449497D01*
X130700Y449384D01*
X139800D01*
X140658Y449497D01*
X141458Y449828D01*
X142145Y450355D01*
X148014Y456225D01*
X148541Y456911D01*
X148872Y457711D01*
X148985Y458569D01*
Y465446D01*
X149028Y466807D01*
X149126Y467957D01*
X149187Y468349D01*
X149224Y468504D01*
X149606D01*
Y468886D01*
X149728Y468915D01*
X152789Y469125D01*
X183714D01*
X185074Y469082D01*
X186225Y468984D01*
X186616Y468923D01*
X186772Y468886D01*
Y468504D01*
X187553D01*
X187570Y468501D01*
X187571Y468501D01*
X187571Y468501D01*
X187588Y468504D01*
X193829D01*
X193846Y468501D01*
X193847Y468501D01*
X193847Y468501D01*
X193864Y468504D01*
X194646D01*
Y468886D01*
X194767Y468915D01*
X196023Y469001D01*
X196225Y468984D01*
X196616Y468923D01*
X196772Y468886D01*
Y468504D01*
X197553D01*
X197570Y468501D01*
X197571Y468501D01*
X197571Y468501D01*
X197588Y468504D01*
X203788D01*
X203795Y468502D01*
X203809Y468504D01*
X203829D01*
X203846Y468501D01*
X203864Y468504D01*
X204646D01*
Y469246D01*
X204647Y469252D01*
X204680Y469760D01*
X204769Y470242D01*
X204922Y470750D01*
X205142Y471286D01*
X205431Y471848D01*
X205790Y472436D01*
X206215Y473039D01*
X207308Y474343D01*
X207506Y474549D01*
X213893Y480936D01*
X296744D01*
X297602Y481049D01*
X298402Y481380D01*
X299089Y481907D01*
X299616Y482594D01*
X299947Y483394D01*
X300060Y484252D01*
X299947Y485110D01*
X299616Y485910D01*
X299089Y486597D01*
X298402Y487123D01*
X297602Y487455D01*
X296744Y487568D01*
X212520D01*
X211662Y487455D01*
X210862Y487123D01*
X210175Y486597D01*
X203059Y479481D01*
X201942Y478452D01*
X201315Y477954D01*
X200704Y477522D01*
X200116Y477163D01*
X199554Y476874D01*
X199018Y476654D01*
X198509Y476501D01*
X198028Y476412D01*
X197520Y476380D01*
X197513Y476378D01*
X196772D01*
Y475996D01*
X196650Y475967D01*
X195395Y475881D01*
X195192Y475898D01*
X194801Y475959D01*
X194646Y475996D01*
Y476378D01*
X193864D01*
X193847Y476381D01*
X193847Y476381D01*
X193846Y476381D01*
X193829Y476378D01*
X187588D01*
X187571Y476381D01*
X187571Y476381D01*
X187570Y476381D01*
X187553Y476378D01*
X186772D01*
Y475996D01*
X186650Y475967D01*
X183589Y475757D01*
X152664D01*
X151304Y475800D01*
X150153Y475898D01*
X149761Y475959D01*
X149606Y475996D01*
Y476378D01*
X148882D01*
X148625Y476406D01*
X148486Y476456D01*
X148361Y476542D01*
X148229Y476688D01*
X148091Y476919D01*
X147961Y477247D01*
X147849Y477674D01*
X147764Y478197D01*
X147711Y478812D01*
X147701Y479201D01*
Y488622D01*
X147677Y488803D01*
Y496178D01*
X315587D01*
X315739Y495678D01*
X315298Y495383D01*
X307765Y487850D01*
X307719Y487812D01*
X307552Y487686D01*
X307383Y487575D01*
X307213Y487478D01*
X307042Y487395D01*
X306869Y487325D01*
X306693Y487268D01*
X306514Y487224D01*
X306304Y487187D01*
X306246Y487165D01*
X305973Y487129D01*
X305255Y486831D01*
X304638Y486358D01*
X304165Y485741D01*
X303867Y485023D01*
X303766Y484252D01*
X303867Y483481D01*
X304165Y482763D01*
X304638Y482146D01*
X305255Y481673D01*
X305973Y481375D01*
X306744Y481274D01*
X307515Y481375D01*
X308233Y481673D01*
X308850Y482146D01*
X309323Y482763D01*
X309621Y483481D01*
X309657Y483754D01*
X309679Y483811D01*
X309716Y484022D01*
X309760Y484201D01*
X309818Y484377D01*
X309887Y484550D01*
X309970Y484721D01*
X310067Y484891D01*
X310178Y485060D01*
X310304Y485227D01*
X310342Y485272D01*
X317341Y492272D01*
X323780D01*
X451213Y364840D01*
X451021Y364378D01*
X444252D01*
Y356504D01*
X452126D01*
Y363273D01*
X452588Y363465D01*
X453424Y362629D01*
X453767Y362260D01*
X454016Y361949D01*
X454208Y361674D01*
X454252Y361598D01*
Y357321D01*
X454249Y357303D01*
X454252Y357286D01*
Y356504D01*
X454961D01*
X454970Y356502D01*
X454988Y356482D01*
X455066Y356341D01*
X455159Y356087D01*
X455246Y355728D01*
X455317Y355281D01*
X455406Y354078D01*
X455409Y353894D01*
Y344016D01*
X455504Y343296D01*
X455782Y342626D01*
X456223Y342050D01*
X456799Y341609D01*
X457470Y341331D01*
X458189Y341236D01*
X458908Y341331D01*
X459579Y341609D01*
X460154Y342050D01*
X460596Y342626D01*
X460874Y343296D01*
X460969Y344016D01*
Y353606D01*
X461006Y354731D01*
X461059Y355271D01*
X461132Y355728D01*
X461220Y356087D01*
X461312Y356341D01*
X461390Y356482D01*
X461408Y356502D01*
X461416Y356504D01*
X462126D01*
Y357286D01*
X462129Y357303D01*
X462126Y357321D01*
Y364378D01*
X457032D01*
X456956Y364422D01*
X456690Y364608D01*
X456097Y365110D01*
X325824Y495383D01*
X325383Y495678D01*
X325535Y496178D01*
X416850D01*
Y488724D01*
X416827Y488543D01*
Y479115D01*
X416818Y478746D01*
X416768Y478128D01*
X416688Y477601D01*
X416581Y477170D01*
X416457Y476838D01*
X416327Y476605D01*
X416206Y476462D01*
X416099Y476384D01*
X415987Y476341D01*
X415763Y476315D01*
X415039D01*
Y475533D01*
X415036Y475516D01*
X415039Y475498D01*
Y469258D01*
X415036Y469240D01*
X415036Y469240D01*
X415036Y469239D01*
X415039Y469222D01*
Y468441D01*
X415422D01*
X415450Y468320D01*
X415661Y465258D01*
Y461724D01*
X415774Y460865D01*
X416105Y460066D01*
X416632Y459379D01*
X422755Y453255D01*
X423442Y452729D01*
X424242Y452397D01*
X425100Y452284D01*
X432800D01*
X433658Y452397D01*
X434458Y452729D01*
X435145Y453255D01*
X441321Y459432D01*
X441848Y460118D01*
X442179Y460918D01*
X442292Y461776D01*
Y465446D01*
X442336Y466807D01*
X442433Y467957D01*
X442494Y468349D01*
X442531Y468504D01*
X442913D01*
Y468886D01*
X443035Y468915D01*
X446096Y469125D01*
X477021D01*
X478381Y469082D01*
X479532Y468984D01*
X479923Y468923D01*
X480079Y468886D01*
Y468504D01*
X480860D01*
X480877Y468501D01*
X480878Y468501D01*
X480878Y468501D01*
X480895Y468504D01*
X487136D01*
X487153Y468501D01*
X487154Y468501D01*
X487154Y468501D01*
X487172Y468504D01*
X487953D01*
Y468886D01*
X488074Y468915D01*
X489330Y469001D01*
X489532Y468984D01*
X489923Y468923D01*
X490079Y468886D01*
Y468504D01*
X490461D01*
X490490Y468383D01*
X490700Y465321D01*
Y392684D01*
X490813Y391826D01*
X491144Y391026D01*
X491671Y390340D01*
X494873Y387138D01*
Y367435D01*
X494830Y366075D01*
X494732Y364925D01*
X494671Y364533D01*
X494634Y364378D01*
X494252D01*
Y363597D01*
X494248Y363580D01*
X494249Y363579D01*
X494248Y363579D01*
X494252Y363561D01*
Y357321D01*
X494248Y357303D01*
X494252Y357286D01*
Y356504D01*
X494961D01*
X494970Y356502D01*
X494988Y356482D01*
X495066Y356341D01*
X495158Y356087D01*
X495246Y355728D01*
X495317Y355281D01*
X495406Y354078D01*
X495409Y353894D01*
Y346745D01*
X495372Y345618D01*
X495318Y345078D01*
X495245Y344622D01*
X495157Y344264D01*
X495064Y344010D01*
X494986Y343869D01*
X494967Y343847D01*
X494954Y343845D01*
X494244D01*
Y343063D01*
X494241Y343046D01*
X494244Y343028D01*
Y338087D01*
X494241Y338070D01*
X494244Y338052D01*
Y337270D01*
X494887D01*
X494948Y337143D01*
X495031Y336880D01*
X495104Y336534D01*
X495250Y334841D01*
X495252Y334739D01*
Y272647D01*
X490132Y267528D01*
X489223Y266692D01*
X488737Y266307D01*
X488262Y265973D01*
X487807Y265697D01*
X487373Y265475D01*
X486961Y265308D01*
X486572Y265192D01*
X486205Y265125D01*
X485808Y265100D01*
X485801Y265098D01*
X485059D01*
Y264316D01*
X485056Y264299D01*
X485059Y264282D01*
Y264263D01*
X485057Y264249D01*
X485059Y264242D01*
Y258524D01*
X490777D01*
X490784Y258522D01*
X490798Y258524D01*
X490817D01*
X490835Y258520D01*
X490852Y258524D01*
X491634D01*
Y259266D01*
X491636Y259273D01*
X491661Y259670D01*
X491728Y260036D01*
X491844Y260425D01*
X492011Y260838D01*
X492232Y261272D01*
X492509Y261727D01*
X492836Y262193D01*
X493688Y263212D01*
X493907Y263441D01*
X499997Y269531D01*
X500439Y270106D01*
X500716Y270777D01*
X500811Y271496D01*
Y334411D01*
X500843Y335504D01*
X500890Y336051D01*
X500954Y336513D01*
X501032Y336880D01*
X501115Y337143D01*
X501176Y337270D01*
X501819D01*
Y338052D01*
X501822Y338070D01*
X501819Y338087D01*
Y343028D01*
X501822Y343046D01*
X501819Y343063D01*
Y343845D01*
X501266D01*
X501230Y343932D01*
X501157Y344205D01*
X501093Y344563D01*
X500969Y346268D01*
Y353606D01*
X501006Y354731D01*
X501059Y355271D01*
X501132Y355728D01*
X501220Y356087D01*
X501312Y356341D01*
X501390Y356482D01*
X501408Y356502D01*
X501416Y356504D01*
X502126D01*
Y357286D01*
X502129Y357303D01*
X502126Y357321D01*
Y363561D01*
X502129Y363579D01*
X502129Y363579D01*
X502129Y363580D01*
X502126Y363597D01*
Y364378D01*
X501744D01*
X501715Y364499D01*
X501505Y367561D01*
Y388511D01*
X501392Y389369D01*
X501060Y390169D01*
X500534Y390856D01*
X497331Y394058D01*
Y465446D01*
X497375Y466807D01*
X497473Y467957D01*
X497534Y468349D01*
X497571Y468504D01*
X497953D01*
Y469285D01*
X497956Y469302D01*
X497956Y469303D01*
X497956Y469303D01*
X497953Y469321D01*
Y476378D01*
X490895D01*
X490878Y476381D01*
X490878Y476381D01*
X490877Y476381D01*
X490860Y476378D01*
X490079D01*
Y475996D01*
X489957Y475967D01*
X488702Y475881D01*
X488499Y475898D01*
X488108Y475959D01*
X487953Y475996D01*
Y476378D01*
X487172D01*
X487154Y476381D01*
X487154Y476381D01*
X487153Y476381D01*
X487136Y476378D01*
X480895D01*
X480878Y476381D01*
X480878Y476381D01*
X480877Y476381D01*
X480860Y476378D01*
X480079D01*
Y475996D01*
X479957Y475967D01*
X476896Y475757D01*
X445971D01*
X444611Y475800D01*
X443460Y475898D01*
X443069Y475959D01*
X442913Y475996D01*
Y476378D01*
X442191D01*
X441989Y476402D01*
X441896Y476440D01*
X441800Y476513D01*
X441685Y476655D01*
X441560Y476889D01*
X441440Y477224D01*
X441338Y477658D01*
X441261Y478187D01*
X441213Y478807D01*
X441205Y479162D01*
Y488543D01*
X441181Y488724D01*
Y496178D01*
X503678D01*
X503678Y106122D01*
D02*
G37*
%LPC*%
G36*
X326772Y487230D02*
X326001Y487129D01*
X325283Y486831D01*
X324666Y486358D01*
X324192Y485741D01*
X323895Y485023D01*
X323793Y484252D01*
X323895Y483481D01*
X324192Y482763D01*
X324666Y482146D01*
X325283Y481673D01*
X326001Y481375D01*
X326772Y481274D01*
X327542Y481375D01*
X328261Y481673D01*
X328878Y482146D01*
X329351Y482763D01*
X329648Y483481D01*
X329750Y484252D01*
X329648Y485023D01*
X329351Y485741D01*
X328878Y486358D01*
X328261Y486831D01*
X327542Y487129D01*
X326772Y487230D01*
D02*
G37*
G36*
X316744Y487230D02*
X315973Y487129D01*
X315255Y486831D01*
X314638Y486358D01*
X314165Y485741D01*
X313867Y485023D01*
X313766Y484252D01*
X313867Y483481D01*
X314165Y482763D01*
X314638Y482146D01*
X315255Y481673D01*
X315973Y481375D01*
X316744Y481274D01*
X317515Y481375D01*
X318233Y481673D01*
X318850Y482146D01*
X319323Y482763D01*
X319621Y483481D01*
X319722Y484252D01*
X319621Y485023D01*
X319323Y485741D01*
X318850Y486358D01*
X318233Y486831D01*
X317515Y487129D01*
X316744Y487230D01*
D02*
G37*
G36*
X396117Y385122D02*
X396117Y385122D01*
X147906D01*
X147906Y385122D01*
X147209Y384984D01*
X146618Y384589D01*
X127134Y365105D01*
X126925Y364920D01*
X126624Y364682D01*
X126358Y364498D01*
X126147Y364378D01*
X121732D01*
Y356504D01*
X129606D01*
Y362265D01*
X129768Y362494D01*
X130305Y363122D01*
X130483Y363299D01*
X130945Y363108D01*
Y356504D01*
X138819D01*
Y364378D01*
X132215D01*
X132023Y364840D01*
X148661Y381478D01*
X203344D01*
X203519Y380978D01*
X203198Y380497D01*
X203060Y379800D01*
Y366530D01*
X203011Y365293D01*
X202932Y364481D01*
X202912Y364432D01*
X202880Y364378D01*
X200945D01*
Y357321D01*
X200941Y357303D01*
X200942Y357303D01*
X200941Y357302D01*
X200945Y357285D01*
Y356504D01*
X201327D01*
X201356Y356382D01*
X201566Y353321D01*
Y331159D01*
X201522Y329795D01*
X201423Y328645D01*
X201361Y328254D01*
X201324Y328097D01*
X200937D01*
Y327319D01*
X200934Y327302D01*
X200934Y327300D01*
X200934Y327298D01*
X200937Y327280D01*
Y321522D01*
X204302D01*
X204635Y321332D01*
X205056Y321041D01*
X205945Y320291D01*
X218987Y307248D01*
X219744Y306743D01*
X220636Y306565D01*
X288772D01*
X289664Y306743D01*
X290421Y307248D01*
X290486Y307346D01*
X290642Y307377D01*
X291176Y307734D01*
X291532Y308268D01*
X291658Y308898D01*
X291532Y309527D01*
X291176Y310061D01*
X290642Y310418D01*
X290486Y310449D01*
X290421Y310547D01*
X289664Y311052D01*
X288772Y311230D01*
X221602D01*
X209847Y322985D01*
X209295Y323577D01*
X208892Y324078D01*
X208580Y324522D01*
X208512Y324641D01*
Y327280D01*
X208515Y327298D01*
X208512Y327315D01*
Y328097D01*
X208405D01*
X208198Y331228D01*
Y353446D01*
X208241Y354807D01*
X208339Y355957D01*
X208400Y356349D01*
X208437Y356504D01*
X208819D01*
Y357285D01*
X208822Y357302D01*
X208822Y357303D01*
X208822Y357303D01*
X208819Y357321D01*
Y364378D01*
X206884D01*
X206851Y364432D01*
X206849Y364439D01*
X206704Y366664D01*
Y379800D01*
X206566Y380497D01*
X206245Y380978D01*
X206420Y381478D01*
X395362D01*
X414211Y362629D01*
X414554Y362260D01*
X414803Y361949D01*
X414995Y361674D01*
X415039Y361598D01*
Y356504D01*
X416902D01*
X416973Y356496D01*
X416973Y356496D01*
X417008Y356440D01*
X417054Y356326D01*
X417101Y356153D01*
X417139Y355922D01*
X417154Y355757D01*
Y296499D01*
X412873Y292218D01*
X412482Y291853D01*
X412158Y291591D01*
X411900Y291409D01*
X407567D01*
Y283835D01*
X414142D01*
Y288084D01*
X414247Y288268D01*
X414426Y288527D01*
X414901Y289092D01*
X420265Y294455D01*
X420265Y294456D01*
X420660Y295047D01*
X420799Y295744D01*
Y355757D01*
X420813Y355922D01*
X420852Y356153D01*
X420898Y356326D01*
X420945Y356440D01*
X420979Y356496D01*
X420980Y356496D01*
X421051Y356504D01*
X422913D01*
Y364378D01*
X417819D01*
X417743Y364422D01*
X417477Y364608D01*
X416884Y365110D01*
X397406Y384589D01*
X396815Y384984D01*
X396117Y385122D01*
D02*
G37*
G36*
X188819Y364378D02*
X180945D01*
Y357586D01*
X180483Y357395D01*
X179635Y358242D01*
X179296Y358608D01*
X179053Y358911D01*
X178866Y359180D01*
X178819Y359262D01*
Y360070D01*
X178822Y360087D01*
X178819Y360104D01*
Y364378D01*
X170945D01*
Y356504D01*
X175218D01*
X175236Y356501D01*
X175253Y356504D01*
X176060D01*
X176143Y356457D01*
X176402Y356276D01*
X176985Y355783D01*
X193918Y338850D01*
Y328820D01*
X193904Y328659D01*
X193866Y328433D01*
X193821Y328264D01*
X193775Y328153D01*
X193745Y328104D01*
X193681Y328097D01*
X191937D01*
Y321522D01*
X199512D01*
Y328097D01*
X197768D01*
X197704Y328104D01*
X197673Y328153D01*
X197628Y328264D01*
X197583Y328433D01*
X197545Y328659D01*
X197531Y328820D01*
Y339598D01*
X197393Y340290D01*
X197002Y340876D01*
X181835Y356042D01*
X182027Y356504D01*
X188819D01*
Y364378D01*
D02*
G37*
G36*
X482126D02*
X474252D01*
Y356504D01*
X482126D01*
Y364378D01*
D02*
G37*
G36*
X168819D02*
X160945D01*
Y356504D01*
X168819D01*
Y364378D01*
D02*
G37*
G36*
X148819D02*
X140945D01*
Y356504D01*
X148819D01*
Y364378D01*
D02*
G37*
G36*
X492126D02*
X484252D01*
Y356504D01*
X486114D01*
X486186Y356496D01*
X486186Y356496D01*
X486220Y356440D01*
X486267Y356326D01*
X486313Y356153D01*
X486352Y355922D01*
X486367Y355757D01*
Y351511D01*
X486367Y351511D01*
X486505Y350814D01*
X486900Y350222D01*
X486911Y350211D01*
X487503Y349816D01*
X488200Y349678D01*
X488897Y349816D01*
X489489Y350211D01*
X489884Y350803D01*
X490022Y351500D01*
X490011Y351555D01*
Y355757D01*
X490026Y355922D01*
X490064Y356153D01*
X490111Y356326D01*
X490158Y356440D01*
X490192Y356496D01*
X490192Y356496D01*
X490264Y356504D01*
X492126D01*
Y364378D01*
D02*
G37*
G36*
X198819D02*
X190945D01*
Y356504D01*
X192807D01*
X192878Y356496D01*
X192879Y356496D01*
X192913Y356440D01*
X192960Y356326D01*
X193006Y356153D01*
X193045Y355922D01*
X193060Y355757D01*
Y350394D01*
X193198Y349696D01*
X193593Y349105D01*
X194185Y348710D01*
X194882Y348571D01*
X195579Y348710D01*
X196170Y349105D01*
X196566Y349696D01*
X196704Y350394D01*
Y355757D01*
X196719Y355922D01*
X196757Y356153D01*
X196804Y356326D01*
X196851Y356440D01*
X196885Y356496D01*
X196885Y356496D01*
X196957Y356504D01*
X198819D01*
Y364378D01*
D02*
G37*
G36*
X468189Y372689D02*
X467492Y372550D01*
X466900Y372155D01*
X466505Y371564D01*
X466367Y370866D01*
Y365122D01*
X466352Y364955D01*
X466313Y364722D01*
X466266Y364547D01*
X466220Y364432D01*
X466187Y364378D01*
X464252D01*
Y356504D01*
X466114D01*
X466186Y356496D01*
X466186Y356496D01*
X466220Y356440D01*
X466267Y356326D01*
X466314Y356153D01*
X466352Y355922D01*
X466367Y355757D01*
Y346535D01*
X466367Y346535D01*
X466505Y345838D01*
X466900Y345247D01*
X472878Y339269D01*
X472878Y339269D01*
X473469Y338874D01*
X474167Y338735D01*
X474167Y338735D01*
X484500D01*
X484667Y338720D01*
X484900Y338682D01*
X485075Y338635D01*
X485191Y338588D01*
X485244Y338556D01*
Y337270D01*
X492819D01*
Y343845D01*
X485244D01*
Y342560D01*
X485191Y342527D01*
X485075Y342480D01*
X484900Y342433D01*
X484667Y342395D01*
X484500Y342380D01*
X474922D01*
X470011Y347290D01*
Y355757D01*
X470026Y355922D01*
X470064Y356153D01*
X470111Y356326D01*
X470158Y356440D01*
X470192Y356496D01*
X470192Y356496D01*
X470264Y356504D01*
X472126D01*
Y364378D01*
X470191D01*
X470158Y364432D01*
X470112Y364547D01*
X470065Y364722D01*
X470026Y364955D01*
X470011Y365122D01*
Y370866D01*
X469873Y371564D01*
X469478Y372155D01*
X468886Y372550D01*
X468189Y372689D01*
D02*
G37*
G36*
X277276Y352200D02*
X269291D01*
X268600Y352063D01*
X268014Y351671D01*
X267622Y351085D01*
X267485Y350394D01*
X267622Y349702D01*
X268014Y349116D01*
X268600Y348725D01*
X269291Y348587D01*
X276527D01*
X285155Y339959D01*
X285545Y339543D01*
X285822Y339205D01*
X285917Y339072D01*
Y337283D01*
X287999D01*
X288080Y337229D01*
X288772Y337091D01*
X289463Y337229D01*
X289545Y337283D01*
X291626D01*
Y340512D01*
X290060D01*
X289906Y340580D01*
X289684Y340705D01*
X289441Y340870D01*
X288927Y341297D01*
X278553Y351671D01*
X277967Y352063D01*
X277276Y352200D01*
D02*
G37*
G36*
X309697Y330543D02*
X307217D01*
X306587Y330418D01*
X306053Y330061D01*
X305696Y329527D01*
X305571Y328898D01*
X305696Y328268D01*
X306053Y327734D01*
X306587Y327377D01*
X307217Y327252D01*
X309697D01*
X310327Y327377D01*
X310861Y327734D01*
X311217Y328268D01*
X311343Y328898D01*
X311217Y329527D01*
X310861Y330061D01*
X310327Y330418D01*
X309697Y330543D01*
D02*
G37*
G36*
X288772Y335704D02*
X288080Y335566D01*
X288046Y335543D01*
X287531D01*
X286902Y335418D01*
X286368Y335061D01*
X286011Y334527D01*
X285886Y333898D01*
X286011Y333268D01*
X286246Y332916D01*
X286248Y332910D01*
X286256Y332901D01*
X286368Y332734D01*
X286450Y332679D01*
X286454Y332674D01*
X286571Y332584D01*
X286639Y332515D01*
X286705Y332429D01*
X286767Y332321D01*
X286826Y332188D01*
X286878Y332027D01*
X286923Y331838D01*
X286956Y331620D01*
X286965Y331510D01*
Y331285D01*
X286956Y331176D01*
X286923Y330957D01*
X286878Y330768D01*
X286826Y330607D01*
X286767Y330474D01*
X286705Y330367D01*
X286639Y330280D01*
X286571Y330211D01*
X286454Y330121D01*
X286450Y330116D01*
X286368Y330061D01*
X286316Y329983D01*
X262992D01*
X262301Y329846D01*
X261715Y329454D01*
X261323Y328868D01*
X261186Y328177D01*
X261323Y327486D01*
X261715Y326900D01*
X262301Y326508D01*
X262992Y326371D01*
X288051D01*
X288742Y326508D01*
X289329Y326900D01*
X289680Y327252D01*
X290012D01*
X290642Y327377D01*
X291176Y327734D01*
X291532Y328268D01*
X291658Y328898D01*
X291532Y329527D01*
X291297Y329879D01*
X291295Y329885D01*
X291287Y329894D01*
X291176Y330061D01*
X291093Y330116D01*
X291089Y330121D01*
X290972Y330211D01*
X290904Y330280D01*
X290839Y330367D01*
X290776Y330474D01*
X290717Y330607D01*
X290665Y330768D01*
X290621Y330958D01*
X290587Y331176D01*
X290578Y331285D01*
Y331510D01*
X290587Y331620D01*
X290621Y331838D01*
X290665Y332027D01*
X290717Y332188D01*
X290776Y332321D01*
X290839Y332429D01*
X290904Y332515D01*
X290972Y332584D01*
X291089Y332675D01*
X291093Y332679D01*
X291176Y332734D01*
X291287Y332901D01*
X291295Y332910D01*
X291297Y332916D01*
X291532Y333268D01*
X291658Y333898D01*
X291532Y334527D01*
X291176Y335061D01*
X290642Y335418D01*
X290012Y335543D01*
X289497D01*
X289463Y335566D01*
X288772Y335704D01*
D02*
G37*
G36*
X158819Y364378D02*
X150945D01*
Y357321D01*
X150942Y357303D01*
X150942Y357303D01*
X150942Y357302D01*
X150945Y357285D01*
Y356504D01*
X151327D01*
X151356Y356382D01*
X151566Y353321D01*
Y351452D01*
X135363Y335249D01*
X134478Y334402D01*
X133352Y333443D01*
X132870Y333082D01*
X132436Y332792D01*
X132059Y332578D01*
X131748Y332438D01*
X131526Y332371D01*
X122756D01*
X121898Y332258D01*
X121098Y331927D01*
X120411Y331400D01*
X115687Y326675D01*
X115160Y325989D01*
X114829Y325189D01*
X114716Y324331D01*
Y237098D01*
X114829Y236240D01*
X115160Y235440D01*
X115687Y234754D01*
X124622Y225819D01*
X124339Y225395D01*
X124064Y225509D01*
X123075Y225639D01*
X122086Y225509D01*
X121165Y225127D01*
X120374Y224520D01*
X119766Y223729D01*
X119385Y222808D01*
X119255Y221819D01*
X119385Y220830D01*
X119766Y219909D01*
X120374Y219118D01*
X121165Y218511D01*
X122086Y218129D01*
X123075Y217999D01*
X124064Y218129D01*
X124985Y218511D01*
X125776Y219118D01*
X126383Y219909D01*
X126765Y220830D01*
X126895Y221819D01*
X126765Y222808D01*
X126651Y223083D01*
X127075Y223366D01*
X129629Y220812D01*
X129995Y219927D01*
Y179681D01*
X130108Y178823D01*
X130439Y178023D01*
X130966Y177337D01*
X145091Y163212D01*
X144807Y162788D01*
X144532Y162902D01*
X143543Y163033D01*
X142555Y162902D01*
X141633Y162521D01*
X140842Y161914D01*
X140235Y161123D01*
X139853Y160201D01*
X139723Y159213D01*
X139853Y158224D01*
X140235Y157303D01*
X140842Y156511D01*
X141633Y155904D01*
X142555Y155523D01*
X143543Y155393D01*
X144532Y155523D01*
X145453Y155904D01*
X146245Y156511D01*
X146852Y157303D01*
X147233Y158224D01*
X147363Y159213D01*
X147233Y160201D01*
X147119Y160477D01*
X147543Y160760D01*
X150097Y158206D01*
X150471Y157303D01*
X151078Y156511D01*
X151869Y155904D01*
X152773Y155530D01*
X153377Y154926D01*
Y122520D01*
X153490Y121661D01*
X153821Y120862D01*
X154348Y120175D01*
X161550Y112973D01*
X161567Y112844D01*
X161959Y111898D01*
X162582Y111086D01*
X163394Y110463D01*
X164339Y110071D01*
X165354Y109937D01*
X166369Y110071D01*
X167315Y110463D01*
X168127Y111086D01*
X168750Y111898D01*
X169142Y112844D01*
X169275Y113858D01*
X169142Y114873D01*
X168750Y115819D01*
X168127Y116631D01*
X167315Y117254D01*
X166369Y117646D01*
X166239Y117663D01*
X160009Y123893D01*
Y156299D01*
X159896Y157157D01*
X159564Y157957D01*
X159037Y158644D01*
X157462Y160219D01*
X157088Y161123D01*
X156481Y161914D01*
X155690Y162521D01*
X154786Y162895D01*
X136627Y181054D01*
Y219927D01*
X137001Y220830D01*
X137131Y221819D01*
X137001Y222808D01*
X136619Y223729D01*
X136012Y224520D01*
X135221Y225127D01*
X134318Y225501D01*
X121347Y238472D01*
Y322957D01*
X124129Y325739D01*
X133858D01*
X134074Y325768D01*
X136329D01*
X136346Y325764D01*
X136363Y325768D01*
X137146D01*
Y326491D01*
X137171Y326713D01*
X137241Y326945D01*
X137381Y327256D01*
X137596Y327633D01*
X137886Y328067D01*
X138242Y328543D01*
X139767Y330275D01*
X157227Y347734D01*
X157753Y348421D01*
X158085Y349221D01*
X158198Y350079D01*
Y353446D01*
X158241Y354807D01*
X158339Y355957D01*
X158400Y356349D01*
X158437Y356504D01*
X158819D01*
Y357285D01*
X158822Y357302D01*
X158822Y357303D01*
X158822Y357303D01*
X158819Y357321D01*
Y364378D01*
D02*
G37*
G36*
X238189Y379381D02*
X237492Y379243D01*
X236900Y378848D01*
X234538Y376485D01*
X234143Y375894D01*
X234004Y375197D01*
X234004Y375197D01*
Y327165D01*
X234143Y326468D01*
X234538Y325877D01*
X235129Y325482D01*
X235827Y325343D01*
X236524Y325482D01*
X237115Y325877D01*
X237510Y326468D01*
X237649Y327165D01*
Y374442D01*
X239478Y376270D01*
X239873Y376862D01*
X240011Y377559D01*
X239873Y378257D01*
X239478Y378848D01*
X238886Y379243D01*
X238189Y379381D01*
D02*
G37*
G36*
X226772D02*
X226074Y379243D01*
X225483Y378848D01*
X221940Y375304D01*
X221545Y374713D01*
X221406Y374016D01*
X221406Y374016D01*
Y327165D01*
X221545Y326468D01*
X221940Y325877D01*
X222531Y325482D01*
X223228Y325343D01*
X223926Y325482D01*
X224517Y325877D01*
X224912Y326468D01*
X225051Y327165D01*
Y373261D01*
X228060Y376270D01*
X228455Y376862D01*
X228594Y377559D01*
X228455Y378257D01*
X228060Y378848D01*
X227469Y379243D01*
X226772Y379381D01*
D02*
G37*
G36*
X309697Y325543D02*
X307217D01*
X306587Y325418D01*
X306053Y325061D01*
X305696Y324528D01*
X305571Y323898D01*
X305669Y323401D01*
X305385Y322901D01*
X303732D01*
X303671Y322962D01*
X303215Y323267D01*
X302677Y323374D01*
X291947D01*
X291630Y323760D01*
X291658Y323898D01*
X291532Y324528D01*
X291176Y325061D01*
X290642Y325418D01*
X290012Y325543D01*
X287531D01*
X286902Y325418D01*
X286368Y325061D01*
X286011Y324528D01*
X285886Y323898D01*
X286011Y323268D01*
X286368Y322734D01*
X286902Y322377D01*
X287531Y322252D01*
X288247D01*
X288338Y322211D01*
X288448Y322149D01*
X288565Y322070D01*
X288826Y321856D01*
X289462Y321220D01*
X289255Y320720D01*
X288772D01*
X288074Y320581D01*
X288018Y320543D01*
X287531D01*
X286902Y320418D01*
X286368Y320061D01*
X286011Y319528D01*
X285886Y318898D01*
X286011Y318268D01*
X286368Y317734D01*
X286902Y317377D01*
X287531Y317252D01*
X288018D01*
X288074Y317214D01*
X288772Y317075D01*
X292552D01*
X300146Y309481D01*
Y295724D01*
X234538Y230116D01*
X234190Y229595D01*
X234068Y228980D01*
X234068Y228980D01*
Y226904D01*
X234035Y226707D01*
X233972Y226463D01*
X233883Y226205D01*
X233591Y225572D01*
X233410Y225251D01*
X232922Y224499D01*
X232628Y224097D01*
X232600Y224035D01*
X232365Y223729D01*
X231983Y222808D01*
X231853Y221819D01*
X231983Y220830D01*
X232365Y219909D01*
X232972Y219118D01*
X233763Y218511D01*
X234684Y218129D01*
X235056Y218080D01*
X235111Y218058D01*
X235963Y217902D01*
X236318Y217811D01*
X236655Y217705D01*
X236963Y217587D01*
X237245Y217459D01*
X237499Y217321D01*
X237727Y217174D01*
X237884Y217053D01*
X248734Y206203D01*
X249321Y205812D01*
X250012Y205674D01*
X289370D01*
X290061Y205812D01*
X290647Y206203D01*
X291039Y206789D01*
X291176Y207480D01*
X291039Y208172D01*
X290647Y208758D01*
X290061Y209149D01*
X289370Y209287D01*
X250760D01*
X240439Y219608D01*
X240318Y219765D01*
X240171Y219993D01*
X240033Y220248D01*
X239905Y220529D01*
X239788Y220837D01*
X239685Y221164D01*
X239505Y221939D01*
X239437Y222364D01*
X239413Y222427D01*
X239363Y222808D01*
X238982Y223729D01*
X238747Y224035D01*
X238718Y224097D01*
X238420Y224505D01*
X238168Y224877D01*
X237746Y225591D01*
X237593Y225899D01*
X237468Y226194D01*
X237374Y226463D01*
X237311Y226707D01*
X237279Y226905D01*
Y228315D01*
X302528Y293565D01*
X302666Y293592D01*
X303257Y293987D01*
X303652Y294578D01*
X303791Y295276D01*
Y310236D01*
X303791Y310236D01*
X303652Y310934D01*
X303257Y311525D01*
X303257Y311525D01*
X294719Y320063D01*
X294892Y320564D01*
X302095D01*
X302156Y320503D01*
X302612Y320198D01*
X303150Y320091D01*
X305471D01*
X305738Y319591D01*
X305696Y319528D01*
X305571Y318898D01*
X305696Y318268D01*
X306053Y317734D01*
X306587Y317377D01*
X307217Y317252D01*
X309697D01*
X310327Y317377D01*
X310861Y317734D01*
X311217Y318268D01*
X311343Y318898D01*
X311217Y319528D01*
X311175Y319591D01*
X311442Y320091D01*
X321299D01*
X321837Y320198D01*
X322293Y320503D01*
X323507Y321717D01*
X323646Y321745D01*
X324167Y322093D01*
X324515Y322614D01*
X324637Y323228D01*
X324515Y323843D01*
X324167Y324364D01*
X323646Y324712D01*
X323031Y324834D01*
X322417Y324712D01*
X321896Y324364D01*
X321548Y323843D01*
X321523Y323718D01*
X321432Y323616D01*
X320717Y322901D01*
X311528D01*
X311244Y323401D01*
X311343Y323898D01*
X311217Y324528D01*
X310861Y325061D01*
X310327Y325418D01*
X309697Y325543D01*
D02*
G37*
G36*
X472047Y325051D02*
X442913D01*
X442216Y324912D01*
X441625Y324517D01*
X441230Y323926D01*
X441091Y323228D01*
X441230Y322531D01*
X441625Y321940D01*
X442216Y321545D01*
X442913Y321406D01*
X472047D01*
X472745Y321545D01*
X473336Y321940D01*
X473731Y322531D01*
X473870Y323228D01*
X473731Y323926D01*
X473336Y324517D01*
X472745Y324912D01*
X472047Y325051D01*
D02*
G37*
G36*
X165654Y335965D02*
X158079D01*
Y329390D01*
X159823D01*
X159887Y329383D01*
X159917Y329333D01*
X159962Y329223D01*
X160008Y329054D01*
X160046Y328828D01*
X160060Y328666D01*
Y323299D01*
X160046Y323136D01*
X160008Y322907D01*
X159962Y322736D01*
X159916Y322624D01*
X159889Y322579D01*
X158079D01*
Y321033D01*
X158033Y321005D01*
X157921Y320959D01*
X157750Y320914D01*
X157522Y320876D01*
X157358Y320862D01*
X137823D01*
X137693Y320875D01*
X137464Y320916D01*
X137235Y320973D01*
X137006Y321048D01*
X136777Y321140D01*
X136546Y321250D01*
X136314Y321378D01*
X136081Y321526D01*
X135829Y321706D01*
X135770Y321732D01*
X135516Y321927D01*
X134716Y322258D01*
X133858Y322371D01*
X133000Y322258D01*
X132200Y321927D01*
X131514Y321400D01*
X130987Y320713D01*
X130656Y319913D01*
X130543Y319055D01*
X130656Y318197D01*
X130987Y317397D01*
X131514Y316710D01*
X132200Y316184D01*
X133000Y315852D01*
X133858Y315739D01*
X134716Y315852D01*
X135516Y316184D01*
X135770Y316378D01*
X135829Y316405D01*
X136081Y316584D01*
X136314Y316732D01*
X136546Y316861D01*
X136777Y316971D01*
X137006Y317062D01*
X137235Y317137D01*
X137464Y317194D01*
X137693Y317235D01*
X137823Y317249D01*
X157358D01*
X157522Y317234D01*
X157750Y317197D01*
X157921Y317151D01*
X158033Y317105D01*
X158079Y317078D01*
Y316004D01*
X165654D01*
Y322579D01*
X163844D01*
X163816Y322624D01*
X163770Y322736D01*
X163725Y322907D01*
X163687Y323136D01*
X163672Y323299D01*
Y328666D01*
X163687Y328828D01*
X163724Y329054D01*
X163770Y329223D01*
X163815Y329333D01*
X163845Y329383D01*
X163909Y329390D01*
X165654D01*
Y335965D01*
D02*
G37*
G36*
X309697Y315543D02*
X307217D01*
X306587Y315418D01*
X306053Y315061D01*
X305696Y314528D01*
X305571Y313898D01*
X305696Y313268D01*
X306053Y312734D01*
X306587Y312377D01*
X307217Y312252D01*
X309697D01*
X310327Y312377D01*
X310861Y312734D01*
X311217Y313268D01*
X311343Y313898D01*
X311217Y314528D01*
X310861Y315061D01*
X310327Y315418D01*
X309697Y315543D01*
D02*
G37*
G36*
X290012D02*
X287531D01*
X286902Y315418D01*
X286368Y315061D01*
X286011Y314528D01*
X285886Y313898D01*
X286011Y313268D01*
X286368Y312734D01*
X286902Y312377D01*
X287531Y312252D01*
X290012D01*
X290642Y312377D01*
X291176Y312734D01*
X291532Y313268D01*
X291658Y313898D01*
X291532Y314528D01*
X291176Y315061D01*
X290642Y315418D01*
X290012Y315543D01*
D02*
G37*
G36*
X309697Y310543D02*
X307217D01*
X306587Y310418D01*
X306053Y310061D01*
X305696Y309527D01*
X305571Y308898D01*
X305696Y308268D01*
X306053Y307734D01*
X306587Y307377D01*
X307217Y307252D01*
X309697D01*
X310327Y307377D01*
X310861Y307734D01*
X311217Y308268D01*
X311343Y308898D01*
X311217Y309527D01*
X310861Y310061D01*
X310327Y310418D01*
X309697Y310543D01*
D02*
G37*
G36*
X133858Y312371D02*
X133000Y312258D01*
X132200Y311927D01*
X131514Y311400D01*
X130987Y310713D01*
X130656Y309913D01*
X130543Y309055D01*
X130656Y308197D01*
X130987Y307397D01*
X131514Y306711D01*
X132200Y306184D01*
X133000Y305852D01*
X133858Y305739D01*
X134716Y305852D01*
X135516Y306184D01*
X136203Y306711D01*
X136730Y307397D01*
X137061Y308197D01*
X137174Y309055D01*
X137061Y309913D01*
X136730Y310713D01*
X136203Y311400D01*
X135516Y311927D01*
X134716Y312258D01*
X133858Y312371D01*
D02*
G37*
G36*
X174653Y322579D02*
X167079D01*
Y316004D01*
X171651D01*
X171665Y316001D01*
X171684Y316004D01*
X172045D01*
X172121Y315961D01*
X172245Y315876D01*
X172544Y315627D01*
X186390Y301780D01*
Y295614D01*
X186312Y295496D01*
X186190Y294882D01*
X186312Y294267D01*
X186660Y293746D01*
X187181Y293398D01*
X187795Y293276D01*
X188410Y293398D01*
X188931Y293746D01*
X189279Y294267D01*
X189401Y294882D01*
X189279Y295496D01*
X189208Y295602D01*
X189200Y295738D01*
Y302362D01*
X189093Y302900D01*
X188789Y303356D01*
X175034Y317110D01*
X174821Y317338D01*
X174676Y317517D01*
X174653Y317549D01*
Y322579D01*
D02*
G37*
G36*
X312638Y351362D02*
X311918Y351268D01*
X311248Y350990D01*
X310672Y350548D01*
X310230Y349973D01*
X309953Y349302D01*
X309858Y348583D01*
Y344230D01*
X306491Y340863D01*
X306049Y340287D01*
X305798Y339679D01*
X305696Y339528D01*
X305571Y338898D01*
X305696Y338268D01*
X305798Y338116D01*
X306049Y337508D01*
X306491Y336932D01*
X307067Y336490D01*
X307737Y336213D01*
X307992Y336179D01*
X308023Y335671D01*
X307807Y335591D01*
X307759Y335581D01*
X307732Y335563D01*
X307679Y335543D01*
X307217D01*
X306587Y335418D01*
X306053Y335061D01*
X305696Y334527D01*
X305571Y333898D01*
X305696Y333268D01*
X306053Y332734D01*
X306587Y332377D01*
X307217Y332252D01*
X307702D01*
X307759Y332214D01*
X308457Y332075D01*
X362648D01*
X370780Y323943D01*
Y311836D01*
X348102Y289158D01*
X347961Y289041D01*
X347924Y289014D01*
X347547Y288939D01*
X346823Y288456D01*
X346340Y287732D01*
X346170Y286879D01*
X346340Y286025D01*
X346823Y285302D01*
X347547Y284818D01*
X348400Y284648D01*
X349254Y284818D01*
X349977Y285302D01*
X350461Y286025D01*
X350533Y286391D01*
X350844Y286745D01*
X373891Y309792D01*
X373891Y309792D01*
X374286Y310384D01*
X374425Y311081D01*
X374425Y311081D01*
Y324698D01*
X374286Y325395D01*
X373891Y325986D01*
X373891Y325986D01*
X364691Y335186D01*
X364100Y335581D01*
X363402Y335720D01*
X363402Y335720D01*
X343625D01*
X343554Y336213D01*
X344225Y336490D01*
X344800Y336932D01*
X345242Y337508D01*
X345520Y338178D01*
X345614Y338898D01*
X345520Y339617D01*
X345242Y340287D01*
X344800Y340863D01*
X344225Y341305D01*
X343554Y341583D01*
X342835Y341677D01*
X323474D01*
X314603Y350548D01*
X314028Y350990D01*
X313357Y351268D01*
X312638Y351362D01*
D02*
G37*
G36*
X438413Y372689D02*
X437716Y372550D01*
X437125Y372155D01*
X436730Y371564D01*
X436591Y370866D01*
Y365122D01*
X436576Y364955D01*
X436538Y364722D01*
X436491Y364547D01*
X436444Y364432D01*
X436411Y364378D01*
X434252D01*
Y356504D01*
X436114D01*
X436186Y356496D01*
X436186Y356496D01*
X436220Y356440D01*
X436267Y356326D01*
X436313Y356153D01*
X436352Y355922D01*
X436367Y355757D01*
Y292154D01*
X436352Y291986D01*
X436313Y291754D01*
X436266Y291578D01*
X436220Y291463D01*
X436187Y291409D01*
X435126D01*
Y283835D01*
X441701D01*
Y291409D01*
X440191D01*
X440159Y291463D01*
X440112Y291578D01*
X440065Y291754D01*
X440026Y291986D01*
X440011Y292154D01*
Y355757D01*
X440026Y355922D01*
X440064Y356153D01*
X440111Y356326D01*
X440158Y356440D01*
X440192Y356496D01*
X440192Y356496D01*
X440264Y356504D01*
X442126D01*
Y364378D01*
X440415D01*
X440383Y364432D01*
X440336Y364547D01*
X440289Y364722D01*
X440250Y364955D01*
X440236Y365122D01*
Y370866D01*
X440097Y371564D01*
X439702Y372155D01*
X439111Y372550D01*
X438413Y372689D01*
D02*
G37*
G36*
X427559Y380322D02*
X426862Y380184D01*
X426270Y379789D01*
X425875Y379197D01*
X425737Y378500D01*
Y365122D01*
X425722Y364955D01*
X425683Y364722D01*
X425636Y364547D01*
X425590Y364432D01*
X425557Y364378D01*
X424252D01*
Y356504D01*
X426114D01*
X426186Y356496D01*
X426186Y356496D01*
X426220Y356440D01*
X426267Y356326D01*
X426313Y356153D01*
X426352Y355922D01*
X426367Y355757D01*
Y291934D01*
X426059Y291657D01*
X425854Y291494D01*
X425734Y291409D01*
X421347D01*
Y283835D01*
X427921D01*
Y288154D01*
X428000Y288284D01*
X428123Y288455D01*
X428663Y289074D01*
X429478Y289889D01*
X429478Y289889D01*
X429873Y290480D01*
X430011Y291177D01*
X430011Y291177D01*
Y355757D01*
X430026Y355922D01*
X430064Y356153D01*
X430111Y356326D01*
X430158Y356440D01*
X430192Y356496D01*
X430192Y356496D01*
X430264Y356504D01*
X432126D01*
Y364378D01*
X429561D01*
X429529Y364432D01*
X429482Y364547D01*
X429435Y364722D01*
X429396Y364955D01*
X429382Y365122D01*
Y378500D01*
X429243Y379197D01*
X428848Y379789D01*
X428257Y380184D01*
X427559Y380322D01*
D02*
G37*
G36*
X441701Y282410D02*
X435126D01*
Y278908D01*
X435125Y278900D01*
X435126Y278896D01*
Y278168D01*
X435015Y277972D01*
X434837Y277714D01*
X434363Y277149D01*
X414336Y257122D01*
X383860D01*
X383618Y257587D01*
X393109Y267078D01*
X414912D01*
X414912Y267078D01*
X415609Y267216D01*
X416200Y267611D01*
X422611Y274022D01*
X423004Y274388D01*
X423327Y274649D01*
X423592Y274835D01*
X424450D01*
X424467Y274831D01*
X424485Y274835D01*
X427921D01*
Y282410D01*
X421347D01*
Y278908D01*
X421346Y278900D01*
X421347Y278896D01*
Y278168D01*
X421235Y277972D01*
X421058Y277714D01*
X420584Y277149D01*
X414157Y270722D01*
X392354D01*
X391656Y270584D01*
X391065Y270189D01*
X391065Y270189D01*
X351093Y230216D01*
X350615Y230446D01*
X350503Y231012D01*
X350248Y231394D01*
Y245465D01*
X350262Y245631D01*
X350301Y245861D01*
X350347Y246035D01*
X350394Y246148D01*
X350428Y246205D01*
X350429Y246205D01*
X350500Y246213D01*
X352213D01*
Y253787D01*
X345885D01*
X345694Y254249D01*
X368244Y276800D01*
X406820D01*
X406985Y276785D01*
X407216Y276747D01*
X407389Y276700D01*
X407503Y276653D01*
X407559Y276619D01*
X407559Y276619D01*
X407567Y276547D01*
Y274835D01*
X414142D01*
Y282410D01*
X407567D01*
Y280697D01*
X407559Y280626D01*
X407559Y280625D01*
X407503Y280591D01*
X407389Y280544D01*
X407216Y280498D01*
X406985Y280459D01*
X406820Y280445D01*
X367512D01*
X366814Y280306D01*
X366223Y279911D01*
X366177Y279842D01*
X339213Y252878D01*
X338898Y252949D01*
X338713Y253069D01*
Y253787D01*
X331138D01*
Y252002D01*
X331084Y251970D01*
X330969Y251923D01*
X330793Y251876D01*
X330561Y251837D01*
X330394Y251822D01*
X325398D01*
X325231Y251837D01*
X324998Y251876D01*
X324822Y251923D01*
X324707Y251970D01*
X324654Y252002D01*
Y253287D01*
X317079D01*
Y246713D01*
X324654D01*
Y247998D01*
X324707Y248030D01*
X324822Y248077D01*
X324998Y248124D01*
X325231Y248163D01*
X325398Y248178D01*
X330394D01*
X330561Y248163D01*
X330793Y248124D01*
X330969Y248077D01*
X331084Y248030D01*
X331138Y247998D01*
Y246213D01*
X338603D01*
Y232733D01*
X337945Y232074D01*
X327017D01*
X326325Y231937D01*
X325739Y231545D01*
X291650Y197456D01*
X291329Y197579D01*
X291168Y197681D01*
X291039Y198329D01*
X290647Y198915D01*
X290061Y199307D01*
X289370Y199444D01*
X250366D01*
X230203Y219608D01*
X230082Y219765D01*
X229935Y219993D01*
X229797Y220248D01*
X229669Y220529D01*
X229551Y220837D01*
X229448Y221164D01*
X229269Y221939D01*
X229200Y222364D01*
X229177Y222427D01*
X229127Y222808D01*
X228745Y223729D01*
X228138Y224520D01*
X227347Y225127D01*
X226426Y225509D01*
X225437Y225639D01*
X224448Y225509D01*
X223527Y225127D01*
X222736Y224520D01*
X222129Y223729D01*
X221747Y222808D01*
X221617Y221819D01*
X221747Y220830D01*
X222129Y219909D01*
X222736Y219118D01*
X223527Y218511D01*
X224448Y218129D01*
X224820Y218080D01*
X224874Y218058D01*
X225727Y217902D01*
X226082Y217811D01*
X226418Y217705D01*
X226727Y217587D01*
X227008Y217459D01*
X227263Y217321D01*
X227491Y217174D01*
X227648Y217053D01*
X248341Y196361D01*
X248927Y195969D01*
X249618Y195831D01*
X289319D01*
X289416Y195711D01*
X289552Y195358D01*
X263008Y168814D01*
X253701D01*
X253010Y168677D01*
X252424Y168285D01*
X248117Y163978D01*
X247959Y163858D01*
X247731Y163710D01*
X247477Y163573D01*
X247196Y163444D01*
X246887Y163327D01*
X246560Y163224D01*
X245785Y163045D01*
X245360Y162976D01*
X245297Y162953D01*
X244917Y162902D01*
X243995Y162521D01*
X243204Y161914D01*
X242597Y161123D01*
X242216Y160201D01*
X242085Y159213D01*
X242216Y158224D01*
X242597Y157303D01*
X243204Y156511D01*
X243995Y155904D01*
X244917Y155523D01*
X245905Y155393D01*
X246894Y155523D01*
X247815Y155904D01*
X248607Y156511D01*
X249214Y157303D01*
X249595Y158224D01*
X249644Y158596D01*
X249666Y158650D01*
X249822Y159502D01*
X249914Y159858D01*
X250020Y160194D01*
X250137Y160503D01*
X250266Y160784D01*
X250403Y161038D01*
X250551Y161266D01*
X250671Y161424D01*
X254449Y165201D01*
X258869D01*
X259076Y164701D01*
X258353Y163978D01*
X258195Y163858D01*
X257967Y163710D01*
X257713Y163573D01*
X257432Y163444D01*
X257123Y163327D01*
X256796Y163224D01*
X256022Y163045D01*
X255596Y162976D01*
X255533Y162953D01*
X255153Y162902D01*
X254232Y162521D01*
X253440Y161914D01*
X252833Y161123D01*
X252452Y160201D01*
X252322Y159213D01*
X252452Y158224D01*
X252833Y157303D01*
X253440Y156511D01*
X254232Y155904D01*
X255153Y155523D01*
X256142Y155393D01*
X257130Y155523D01*
X258052Y155904D01*
X258843Y156511D01*
X259450Y157303D01*
X259832Y158224D01*
X259881Y158596D01*
X259902Y158650D01*
X260059Y159502D01*
X260150Y159858D01*
X260256Y160194D01*
X260373Y160503D01*
X260502Y160784D01*
X260640Y161038D01*
X260787Y161266D01*
X260908Y161424D01*
X261496Y162013D01*
X263122D01*
X263369Y161512D01*
X263070Y161123D01*
X262688Y160201D01*
X262558Y159213D01*
X262688Y158224D01*
X263070Y157303D01*
X263677Y156511D01*
X264468Y155904D01*
X265389Y155523D01*
X266378Y155393D01*
X267367Y155523D01*
X268288Y155904D01*
X269079Y156511D01*
X269686Y157303D01*
X270068Y158224D01*
X270156Y158894D01*
X270170Y158941D01*
X270267Y159867D01*
X270333Y160249D01*
X270416Y160606D01*
X270511Y160927D01*
X270618Y161213D01*
X270735Y161464D01*
X270860Y161681D01*
X270970Y161834D01*
X330629Y221493D01*
X351718D01*
X351718Y221493D01*
X352416Y221631D01*
X353007Y222026D01*
X384458Y253478D01*
X415091D01*
X415091Y253478D01*
X415789Y253616D01*
X416380Y254011D01*
X436391Y274022D01*
X436784Y274388D01*
X437107Y274649D01*
X437371Y274835D01*
X438230D01*
X438246Y274831D01*
X438264Y274835D01*
X441701D01*
Y282410D01*
D02*
G37*
G36*
X498347Y265127D02*
X497488Y265014D01*
X496689Y264683D01*
X496002Y264156D01*
X495475Y263469D01*
X495144Y262669D01*
X495031Y261811D01*
X495144Y260953D01*
X495475Y260153D01*
X496002Y259466D01*
X496689Y258940D01*
X497488Y258608D01*
X498347Y258495D01*
X499205Y258608D01*
X500004Y258940D01*
X500691Y259466D01*
X501218Y260153D01*
X501549Y260953D01*
X501662Y261811D01*
X501549Y262669D01*
X501218Y263469D01*
X500691Y264156D01*
X500004Y264683D01*
X499205Y265014D01*
X498347Y265127D01*
D02*
G37*
G36*
X268504Y291586D02*
X267807Y291447D01*
X267215Y291052D01*
X223515Y247352D01*
X223119Y246760D01*
X222981Y246063D01*
X223119Y245366D01*
X223515Y244774D01*
X224106Y244379D01*
X224803Y244241D01*
X225501Y244379D01*
X226092Y244774D01*
X269793Y288475D01*
X270188Y289066D01*
X270326Y289764D01*
X270188Y290461D01*
X269793Y291052D01*
X269201Y291447D01*
X268504Y291586D01*
D02*
G37*
G36*
X493858Y246339D02*
X480472D01*
Y239337D01*
X480469Y239320D01*
X480472Y239303D01*
Y237451D01*
X480258Y237077D01*
X479855Y236497D01*
X478672Y235098D01*
X478245Y234657D01*
X471762Y228173D01*
X416334D01*
X415937Y228184D01*
X415321Y228238D01*
X414798Y228325D01*
X414371Y228439D01*
X414043Y228573D01*
X413811Y228715D01*
X413663Y228852D01*
X413574Y228985D01*
X413520Y229135D01*
X413504Y229292D01*
Y232087D01*
X400118D01*
Y218701D01*
X413504D01*
Y221496D01*
X413520Y221652D01*
X413574Y221803D01*
X413663Y221936D01*
X413811Y222073D01*
X414043Y222214D01*
X414371Y222348D01*
X414798Y222463D01*
X415321Y222549D01*
X415937Y222604D01*
X416334Y222614D01*
X472913D01*
X473633Y222709D01*
X474303Y222986D01*
X474879Y223428D01*
X481994Y230543D01*
X483356Y231807D01*
X484007Y232329D01*
X484596Y232739D01*
X484971Y232953D01*
X486822D01*
X486840Y232949D01*
X486857Y232953D01*
X493858D01*
Y246339D01*
D02*
G37*
G36*
X315653Y253287D02*
X308079D01*
Y246713D01*
X310180D01*
X310191Y246688D01*
X310222Y246570D01*
X310250Y246403D01*
X310261Y246287D01*
Y232369D01*
X275327D01*
X275327Y232369D01*
X274712Y232247D01*
X274191Y231899D01*
X274191Y231899D01*
X268843Y226550D01*
X268680Y226433D01*
X268463Y226306D01*
X268217Y226186D01*
X267564Y225945D01*
X267208Y225846D01*
X266331Y225660D01*
X265840Y225583D01*
X265775Y225559D01*
X265393Y225509D01*
X264472Y225127D01*
X263681Y224520D01*
X263074Y223729D01*
X262692Y222808D01*
X262562Y221819D01*
X262692Y220830D01*
X263074Y219909D01*
X263681Y219118D01*
X264472Y218511D01*
X265393Y218129D01*
X266382Y217999D01*
X267371Y218129D01*
X268292Y218511D01*
X269083Y219118D01*
X269690Y219909D01*
X270072Y220830D01*
X270122Y221212D01*
X270146Y221277D01*
X270224Y221776D01*
X270309Y222217D01*
X270514Y223021D01*
X270624Y223347D01*
X270744Y223643D01*
X270869Y223900D01*
X270996Y224117D01*
X271113Y224279D01*
X275992Y229158D01*
X311866D01*
X312481Y229280D01*
X313001Y229628D01*
X313350Y230149D01*
X313472Y230764D01*
Y246287D01*
X313482Y246403D01*
X313510Y246570D01*
X313542Y246688D01*
X313552Y246713D01*
X315653D01*
Y253287D01*
D02*
G37*
G36*
X256146Y225639D02*
X255157Y225509D01*
X254236Y225127D01*
X253445Y224520D01*
X252837Y223729D01*
X252456Y222808D01*
X252326Y221819D01*
X252456Y220830D01*
X252837Y219909D01*
X253445Y219118D01*
X254236Y218511D01*
X255157Y218129D01*
X256146Y217999D01*
X257134Y218129D01*
X258056Y218511D01*
X258847Y219118D01*
X259454Y219909D01*
X259836Y220830D01*
X259966Y221819D01*
X259836Y222808D01*
X259454Y223729D01*
X258847Y224520D01*
X258056Y225127D01*
X257134Y225509D01*
X256146Y225639D01*
D02*
G37*
G36*
X245909D02*
X244921Y225509D01*
X243999Y225127D01*
X243208Y224520D01*
X242601Y223729D01*
X242219Y222808D01*
X242089Y221819D01*
X242219Y220830D01*
X242601Y219909D01*
X243208Y219118D01*
X243999Y218511D01*
X244921Y218129D01*
X245909Y217999D01*
X246898Y218129D01*
X247819Y218511D01*
X248611Y219118D01*
X249218Y219909D01*
X249599Y220830D01*
X249729Y221819D01*
X249599Y222808D01*
X249218Y223729D01*
X248611Y224520D01*
X247819Y225127D01*
X246898Y225509D01*
X245909Y225639D01*
D02*
G37*
G36*
X215201D02*
X214212Y225509D01*
X213291Y225127D01*
X212500Y224520D01*
X211893Y223729D01*
X211511Y222808D01*
X211381Y221819D01*
X211511Y220830D01*
X211893Y219909D01*
X212500Y219118D01*
X213291Y218511D01*
X214212Y218129D01*
X215201Y217999D01*
X216190Y218129D01*
X217111Y218511D01*
X217902Y219118D01*
X218509Y219909D01*
X218891Y220830D01*
X219021Y221819D01*
X218891Y222808D01*
X218509Y223729D01*
X217902Y224520D01*
X217111Y225127D01*
X216190Y225509D01*
X215201Y225639D01*
D02*
G37*
G36*
X204965D02*
X203976Y225509D01*
X203054Y225127D01*
X202263Y224520D01*
X201656Y223729D01*
X201275Y222808D01*
X201145Y221819D01*
X201275Y220830D01*
X201656Y219909D01*
X202263Y219118D01*
X203054Y218511D01*
X203976Y218129D01*
X204965Y217999D01*
X205953Y218129D01*
X206875Y218511D01*
X207666Y219118D01*
X208273Y219909D01*
X208654Y220830D01*
X208785Y221819D01*
X208654Y222808D01*
X208273Y223729D01*
X207666Y224520D01*
X206875Y225127D01*
X205953Y225509D01*
X204965Y225639D01*
D02*
G37*
G36*
X207480Y314815D02*
X206783Y314676D01*
X206192Y314281D01*
X205797Y313689D01*
X205658Y312992D01*
Y274377D01*
X191625Y260344D01*
X191230Y259752D01*
X191091Y259055D01*
X191107Y258974D01*
Y224026D01*
X191074Y222950D01*
X191068Y222879D01*
X191038Y222808D01*
X190908Y221819D01*
X191038Y220830D01*
X191420Y219909D01*
X192027Y219118D01*
X192818Y218511D01*
X193740Y218129D01*
X194728Y217999D01*
X195717Y218129D01*
X196638Y218511D01*
X197430Y219118D01*
X198037Y219909D01*
X198418Y220830D01*
X198548Y221819D01*
X198418Y222808D01*
X198037Y223729D01*
X197430Y224520D01*
X196638Y225127D01*
X196476Y225195D01*
X196471Y225199D01*
X196077Y225413D01*
X195751Y225618D01*
X195474Y225822D01*
X195245Y226023D01*
X195062Y226218D01*
X194922Y226405D01*
X194822Y226583D01*
X194755Y226755D01*
X194720Y226908D01*
Y258284D01*
X208769Y272333D01*
X208769Y272333D01*
X209164Y272925D01*
X209303Y273622D01*
X209303Y273622D01*
Y312992D01*
X209164Y313689D01*
X208769Y314281D01*
X208178Y314676D01*
X207480Y314815D01*
D02*
G37*
G36*
X174653Y335965D02*
X167079D01*
Y329390D01*
X170580D01*
X170588Y329389D01*
X170592Y329390D01*
X171321D01*
X171517Y329278D01*
X171774Y329101D01*
X172339Y328627D01*
X196402Y304564D01*
Y295276D01*
X196541Y294578D01*
X196936Y293987D01*
X197527Y293592D01*
X198224Y293453D01*
X198922Y293592D01*
X199513Y293987D01*
X199646Y294186D01*
X200146Y294034D01*
Y278708D01*
X182570Y261131D01*
X182175Y260540D01*
X182036Y259842D01*
X182052Y259762D01*
Y226318D01*
X182037Y226141D01*
X181994Y225840D01*
X181935Y225540D01*
X181858Y225240D01*
X181764Y224939D01*
X181655Y224648D01*
X181368Y224026D01*
X181254Y223821D01*
X181184Y223729D01*
X180802Y222808D01*
X180672Y221819D01*
X180802Y220830D01*
X181184Y219909D01*
X181791Y219118D01*
X182582Y218511D01*
X183503Y218129D01*
X184492Y217999D01*
X185481Y218129D01*
X186402Y218511D01*
X187193Y219118D01*
X187800Y219909D01*
X188182Y220830D01*
X188312Y221819D01*
X188182Y222808D01*
X187800Y223729D01*
X187193Y224520D01*
X187142Y224560D01*
X186625Y225144D01*
X186383Y225459D01*
X186173Y225765D01*
X186001Y226055D01*
X185865Y226325D01*
X185765Y226574D01*
X185697Y226803D01*
X185665Y226979D01*
Y259072D01*
X203257Y276664D01*
X203257Y276664D01*
X203652Y277255D01*
X203791Y277953D01*
Y312992D01*
X203652Y313689D01*
X203257Y314281D01*
X202666Y314676D01*
X201969Y314815D01*
X201271Y314676D01*
X200680Y314281D01*
X200285Y313689D01*
X200146Y312992D01*
Y306560D01*
X199646Y306409D01*
X199513Y306608D01*
X199513Y306608D01*
X175466Y330655D01*
X175100Y331048D01*
X174839Y331370D01*
X174653Y331635D01*
Y332494D01*
X174657Y332510D01*
X174653Y332528D01*
Y335965D01*
D02*
G37*
G36*
X174256Y225639D02*
X173267Y225509D01*
X172346Y225127D01*
X171555Y224520D01*
X170948Y223729D01*
X170566Y222808D01*
X170436Y221819D01*
X170566Y220830D01*
X170948Y219909D01*
X171555Y219118D01*
X172346Y218511D01*
X173267Y218129D01*
X174256Y217999D01*
X175245Y218129D01*
X176166Y218511D01*
X176957Y219118D01*
X177564Y219909D01*
X177946Y220830D01*
X178076Y221819D01*
X177946Y222808D01*
X177564Y223729D01*
X176957Y224520D01*
X176166Y225127D01*
X175245Y225509D01*
X174256Y225639D01*
D02*
G37*
G36*
X164020D02*
X163031Y225509D01*
X162110Y225127D01*
X161319Y224520D01*
X160711Y223729D01*
X160330Y222808D01*
X160200Y221819D01*
X160330Y220830D01*
X160711Y219909D01*
X161319Y219118D01*
X162110Y218511D01*
X163031Y218129D01*
X164020Y217999D01*
X165008Y218129D01*
X165930Y218511D01*
X166721Y219118D01*
X167328Y219909D01*
X167710Y220830D01*
X167840Y221819D01*
X167710Y222808D01*
X167328Y223729D01*
X166721Y224520D01*
X165930Y225127D01*
X165008Y225509D01*
X164020Y225639D01*
D02*
G37*
G36*
X153784D02*
X152795Y225509D01*
X151873Y225127D01*
X151082Y224520D01*
X150475Y223729D01*
X150094Y222808D01*
X149963Y221819D01*
X150094Y220830D01*
X150475Y219909D01*
X151082Y219118D01*
X151873Y218511D01*
X152795Y218129D01*
X153784Y217999D01*
X154772Y218129D01*
X155693Y218511D01*
X156485Y219118D01*
X157092Y219909D01*
X157473Y220830D01*
X157604Y221819D01*
X157473Y222808D01*
X157092Y223729D01*
X156485Y224520D01*
X155693Y225127D01*
X154772Y225509D01*
X153784Y225639D01*
D02*
G37*
G36*
X143547D02*
X142559Y225509D01*
X141637Y225127D01*
X140846Y224520D01*
X140239Y223729D01*
X139857Y222808D01*
X139727Y221819D01*
X139857Y220830D01*
X140239Y219909D01*
X140846Y219118D01*
X141637Y218511D01*
X142559Y218129D01*
X143547Y217999D01*
X144536Y218129D01*
X145457Y218511D01*
X146248Y219118D01*
X146855Y219909D01*
X147237Y220830D01*
X147367Y221819D01*
X147237Y222808D01*
X146855Y223729D01*
X146248Y224520D01*
X145457Y225127D01*
X144536Y225509D01*
X143547Y225639D01*
D02*
G37*
G36*
X385177Y219823D02*
X378602D01*
Y213248D01*
X385177D01*
Y219823D01*
D02*
G37*
G36*
X381890Y209851D02*
X381032Y209738D01*
X380232Y209407D01*
X379545Y208880D01*
X379018Y208193D01*
X378687Y207394D01*
X378574Y206535D01*
X378687Y205677D01*
X379018Y204878D01*
X379545Y204191D01*
X380232Y203664D01*
X381032Y203333D01*
X381890Y203220D01*
X382748Y203333D01*
X383548Y203664D01*
X384234Y204191D01*
X384761Y204878D01*
X385092Y205677D01*
X385206Y206535D01*
X385092Y207394D01*
X384761Y208193D01*
X384234Y208880D01*
X383548Y209407D01*
X382748Y209738D01*
X381890Y209851D01*
D02*
G37*
G36*
X413504Y196653D02*
X400118D01*
Y183268D01*
X413504D01*
Y196653D01*
D02*
G37*
G36*
X494213Y182677D02*
X480827D01*
Y169291D01*
X494213D01*
Y182677D01*
D02*
G37*
G36*
X126858Y163000D02*
X119283D01*
Y155425D01*
X126858D01*
Y163000D01*
D02*
G37*
G36*
X235669Y163033D02*
X234681Y162902D01*
X233759Y162521D01*
X232968Y161914D01*
X232361Y161123D01*
X231979Y160201D01*
X231849Y159213D01*
X231979Y158224D01*
X232361Y157303D01*
X232968Y156511D01*
X233759Y155904D01*
X234681Y155523D01*
X235669Y155393D01*
X236658Y155523D01*
X237579Y155904D01*
X238370Y156511D01*
X238978Y157303D01*
X239359Y158224D01*
X239489Y159213D01*
X239359Y160201D01*
X238978Y161123D01*
X238370Y161914D01*
X237579Y162521D01*
X236658Y162902D01*
X235669Y163033D01*
D02*
G37*
G36*
X225433D02*
X224444Y162902D01*
X223523Y162521D01*
X222732Y161914D01*
X222125Y161123D01*
X221743Y160201D01*
X221613Y159213D01*
X221743Y158224D01*
X222125Y157303D01*
X222732Y156511D01*
X223523Y155904D01*
X224444Y155523D01*
X225433Y155393D01*
X226422Y155523D01*
X227343Y155904D01*
X228134Y156511D01*
X228741Y157303D01*
X229123Y158224D01*
X229253Y159213D01*
X229123Y160201D01*
X228741Y161123D01*
X228134Y161914D01*
X227343Y162521D01*
X226422Y162902D01*
X225433Y163033D01*
D02*
G37*
G36*
X215197D02*
X214208Y162902D01*
X213287Y162521D01*
X212496Y161914D01*
X211889Y161123D01*
X211507Y160201D01*
X211377Y159213D01*
X211507Y158224D01*
X211889Y157303D01*
X212496Y156511D01*
X213287Y155904D01*
X214208Y155523D01*
X215197Y155393D01*
X216186Y155523D01*
X217107Y155904D01*
X217898Y156511D01*
X218505Y157303D01*
X218887Y158224D01*
X219017Y159213D01*
X218887Y160201D01*
X218505Y161123D01*
X217898Y161914D01*
X217107Y162521D01*
X216186Y162902D01*
X215197Y163033D01*
D02*
G37*
G36*
X204961D02*
X203972Y162902D01*
X203051Y162521D01*
X202259Y161914D01*
X201652Y161123D01*
X201271Y160201D01*
X201141Y159213D01*
X201271Y158224D01*
X201652Y157303D01*
X202259Y156511D01*
X203051Y155904D01*
X203972Y155523D01*
X204961Y155393D01*
X205949Y155523D01*
X206871Y155904D01*
X207662Y156511D01*
X208269Y157303D01*
X208650Y158224D01*
X208781Y159213D01*
X208650Y160201D01*
X208269Y161123D01*
X207662Y161914D01*
X206871Y162521D01*
X205949Y162902D01*
X204961Y163033D01*
D02*
G37*
G36*
X194724D02*
X193736Y162902D01*
X192814Y162521D01*
X192023Y161914D01*
X191416Y161123D01*
X191034Y160201D01*
X190904Y159213D01*
X191034Y158224D01*
X191416Y157303D01*
X192023Y156511D01*
X192814Y155904D01*
X193736Y155523D01*
X194724Y155393D01*
X195713Y155523D01*
X196634Y155904D01*
X197426Y156511D01*
X198033Y157303D01*
X198414Y158224D01*
X198545Y159213D01*
X198414Y160201D01*
X198033Y161123D01*
X197426Y161914D01*
X196634Y162521D01*
X195713Y162902D01*
X194724Y163033D01*
D02*
G37*
G36*
X133307D02*
X132318Y162902D01*
X131397Y162521D01*
X130606Y161914D01*
X129999Y161123D01*
X129617Y160201D01*
X129487Y159213D01*
X129617Y158224D01*
X129999Y157303D01*
X130606Y156511D01*
X131397Y155904D01*
X132318Y155523D01*
X133307Y155393D01*
X134296Y155523D01*
X135217Y155904D01*
X136008Y156511D01*
X136615Y157303D01*
X136997Y158224D01*
X137127Y159213D01*
X136997Y160201D01*
X136615Y161123D01*
X136008Y161914D01*
X135217Y162521D01*
X134296Y162902D01*
X133307Y163033D01*
D02*
G37*
G36*
X347976Y174657D02*
X347976Y174657D01*
X339370D01*
X338673Y174518D01*
X338081Y174123D01*
X337686Y173532D01*
X337548Y172835D01*
X337686Y172137D01*
X338081Y171546D01*
X338673Y171151D01*
X339370Y171012D01*
X347221D01*
X364099Y154135D01*
X364288Y153921D01*
X364528Y153618D01*
X364711Y153351D01*
X364823Y153155D01*
Y152427D01*
X364822Y152423D01*
X364823Y152415D01*
Y148913D01*
X371398D01*
Y156488D01*
X367961D01*
X367943Y156492D01*
X367927Y156488D01*
X367068D01*
X366812Y156668D01*
X366192Y157197D01*
X349265Y174123D01*
X348674Y174518D01*
X347976Y174657D01*
D02*
G37*
G36*
X336559Y166389D02*
X336559Y166389D01*
X332677D01*
X331980Y166251D01*
X331388Y165856D01*
X330994Y165264D01*
X330855Y164567D01*
X330994Y163870D01*
X331388Y163278D01*
X331980Y162883D01*
X332677Y162744D01*
X335804D01*
X344414Y154135D01*
X344602Y153921D01*
X344843Y153618D01*
X345026Y153351D01*
X345138Y153155D01*
Y152427D01*
X345137Y152423D01*
X345138Y152415D01*
Y148913D01*
X351713D01*
Y156488D01*
X348276D01*
X348258Y156492D01*
X348242Y156488D01*
X347383D01*
X347127Y156668D01*
X346507Y157197D01*
X337848Y165856D01*
X337257Y166251D01*
X336559Y166389D01*
D02*
G37*
G36*
X494213Y152795D02*
X484764D01*
Y143347D01*
X494213D01*
Y152795D01*
D02*
G37*
G36*
X263779Y137779D02*
X262765Y137646D01*
X261819Y137254D01*
X261007Y136631D01*
X260384Y135819D01*
X259992Y134873D01*
X259859Y133858D01*
X259992Y132843D01*
X260384Y131898D01*
X261007Y131086D01*
X261819Y130463D01*
X262765Y130071D01*
X263779Y129937D01*
X264794Y130071D01*
X265740Y130463D01*
X266552Y131086D01*
X267175Y131898D01*
X267567Y132843D01*
X267701Y133858D01*
X267567Y134873D01*
X267175Y135819D01*
X266552Y136631D01*
X265740Y137254D01*
X264794Y137646D01*
X263779Y137779D01*
D02*
G37*
G36*
X184488Y163033D02*
X183500Y162902D01*
X182578Y162521D01*
X181787Y161914D01*
X181180Y161123D01*
X180798Y160201D01*
X180668Y159213D01*
X180798Y158224D01*
X181180Y157303D01*
X181787Y156511D01*
X182578Y155904D01*
X183500Y155523D01*
X183882Y155472D01*
X183946Y155449D01*
X184445Y155370D01*
X184886Y155286D01*
X185690Y155080D01*
X186016Y154970D01*
X186313Y154850D01*
X186569Y154726D01*
X186786Y154598D01*
X186949Y154481D01*
X202014Y139416D01*
X202014Y139416D01*
X202535Y139068D01*
X203150Y138945D01*
X230831D01*
X233326Y136450D01*
X233448Y136280D01*
X233578Y136055D01*
X233706Y135788D01*
X233829Y135478D01*
X233940Y135143D01*
X234246Y133812D01*
X234326Y133303D01*
X234350Y133238D01*
X234402Y132843D01*
X234793Y131898D01*
X235417Y131086D01*
X236228Y130463D01*
X237174Y130071D01*
X238189Y129937D01*
X239204Y130071D01*
X240149Y130463D01*
X240962Y131086D01*
X241585Y131898D01*
X241976Y132843D01*
X242110Y133858D01*
X241976Y134873D01*
X241585Y135819D01*
X240962Y136631D01*
X240149Y137254D01*
X239204Y137646D01*
X238809Y137698D01*
X238744Y137721D01*
X238220Y137803D01*
X237755Y137892D01*
X236912Y138105D01*
X236569Y138218D01*
X236259Y138341D01*
X235992Y138469D01*
X235768Y138600D01*
X235597Y138721D01*
X232631Y141687D01*
X232111Y142035D01*
X231496Y142157D01*
X231496Y142157D01*
X203815D01*
X189220Y156752D01*
X189103Y156915D01*
X188975Y157132D01*
X188856Y157377D01*
X188615Y158031D01*
X188515Y158386D01*
X188329Y159263D01*
X188252Y159755D01*
X188228Y159819D01*
X188178Y160201D01*
X187796Y161123D01*
X187189Y161914D01*
X186398Y162521D01*
X185477Y162902D01*
X184488Y163033D01*
D02*
G37*
G36*
X228346Y137779D02*
X227332Y137646D01*
X226386Y137254D01*
X225574Y136631D01*
X224951Y135819D01*
X224559Y134873D01*
X224426Y133858D01*
X224559Y132843D01*
X224951Y131898D01*
X225574Y131086D01*
X226386Y130463D01*
X227332Y130071D01*
X228346Y129937D01*
X229361Y130071D01*
X230307Y130463D01*
X231119Y131086D01*
X231742Y131898D01*
X232134Y132843D01*
X232267Y133858D01*
X232134Y134873D01*
X231742Y135819D01*
X231119Y136631D01*
X230307Y137254D01*
X229361Y137646D01*
X228346Y137779D01*
D02*
G37*
G36*
X174252Y163033D02*
X173263Y162902D01*
X172342Y162521D01*
X171551Y161914D01*
X170944Y161123D01*
X170562Y160201D01*
X170432Y159213D01*
X170562Y158224D01*
X170944Y157303D01*
X171551Y156511D01*
X172342Y155904D01*
X173263Y155523D01*
X173645Y155472D01*
X173710Y155449D01*
X174209Y155370D01*
X174650Y155286D01*
X175454Y155080D01*
X175780Y154970D01*
X176076Y154850D01*
X176333Y154726D01*
X176550Y154598D01*
X176713Y154481D01*
X198471Y132723D01*
X198471Y132723D01*
X198992Y132375D01*
X199178Y132338D01*
X199360Y131898D01*
X199983Y131086D01*
X200795Y130463D01*
X201741Y130071D01*
X202756Y129937D01*
X203771Y130071D01*
X204716Y130463D01*
X205528Y131086D01*
X206152Y131898D01*
X206543Y132843D01*
X206677Y133858D01*
X206543Y134873D01*
X206152Y135819D01*
X205528Y136631D01*
X204716Y137254D01*
X203771Y137646D01*
X202756Y137779D01*
X201741Y137646D01*
X200795Y137254D01*
X199983Y136631D01*
X199833Y136434D01*
X199334Y136402D01*
X178983Y156752D01*
X178867Y156915D01*
X178739Y157132D01*
X178620Y157377D01*
X178378Y158031D01*
X178279Y158386D01*
X178093Y159263D01*
X178016Y159755D01*
X177992Y159819D01*
X177942Y160201D01*
X177560Y161123D01*
X176953Y161914D01*
X176162Y162521D01*
X175241Y162902D01*
X174252Y163033D01*
D02*
G37*
G36*
X190945Y137779D02*
X189930Y137646D01*
X188984Y137254D01*
X188172Y136631D01*
X187549Y135819D01*
X187157Y134873D01*
X187024Y133858D01*
X187157Y132843D01*
X187549Y131898D01*
X188172Y131086D01*
X188984Y130463D01*
X189930Y130071D01*
X190945Y129937D01*
X191960Y130071D01*
X192905Y130463D01*
X193717Y131086D01*
X194341Y131898D01*
X194732Y132843D01*
X194866Y133858D01*
X194732Y134873D01*
X194341Y135819D01*
X193717Y136631D01*
X192905Y137254D01*
X191960Y137646D01*
X190945Y137779D01*
D02*
G37*
G36*
X164016Y163033D02*
X163027Y162902D01*
X162106Y162521D01*
X161315Y161914D01*
X160707Y161123D01*
X160326Y160201D01*
X160196Y159213D01*
X160326Y158224D01*
X160707Y157303D01*
X160936Y157005D01*
X160959Y156951D01*
X161451Y156238D01*
X161637Y155922D01*
X161800Y155609D01*
X161936Y155308D01*
X162044Y155019D01*
X162126Y154741D01*
X162183Y154476D01*
X162209Y154279D01*
Y137765D01*
X162183Y137301D01*
X162103Y136652D01*
X162053Y136373D01*
X161916Y135820D01*
X161840Y135588D01*
X161745Y135343D01*
X161733Y135275D01*
X161567Y134873D01*
X161433Y133858D01*
X161567Y132843D01*
X161959Y131898D01*
X162582Y131086D01*
X163394Y130463D01*
X164339Y130071D01*
X165354Y129937D01*
X166369Y130071D01*
X167315Y130463D01*
X168127Y131086D01*
X168750Y131898D01*
X169142Y132843D01*
X169275Y133858D01*
X169142Y134873D01*
X168750Y135819D01*
X168127Y136631D01*
X167845Y136847D01*
X167811Y136890D01*
X167009Y137581D01*
X166701Y137885D01*
X166437Y138178D01*
X166222Y138450D01*
X166055Y138700D01*
X165935Y138924D01*
X165858Y139118D01*
X165822Y139263D01*
Y154279D01*
X165848Y154476D01*
X165905Y154741D01*
X165988Y155019D01*
X166096Y155308D01*
X166231Y155609D01*
X166389Y155913D01*
X166810Y156588D01*
X167063Y156937D01*
X167090Y156998D01*
X167324Y157303D01*
X167706Y158224D01*
X167836Y159213D01*
X167706Y160201D01*
X167324Y161123D01*
X166717Y161914D01*
X165926Y162521D01*
X165005Y162902D01*
X164016Y163033D01*
D02*
G37*
G36*
X371398Y147488D02*
X364823D01*
Y139913D01*
X365715D01*
X365747Y139860D01*
X365794Y139744D01*
X365841Y139569D01*
X365880Y139336D01*
X365894Y139169D01*
Y131811D01*
X365880Y131644D01*
X365841Y131411D01*
X365794Y131236D01*
X365747Y131120D01*
X365715Y131067D01*
X363929D01*
Y123492D01*
X371504D01*
Y131067D01*
X369719D01*
X369686Y131120D01*
X369639Y131236D01*
X369592Y131411D01*
X369554Y131644D01*
X369539Y131811D01*
Y139169D01*
X369554Y139336D01*
X369592Y139569D01*
X369639Y139744D01*
X369686Y139860D01*
X369719Y139913D01*
X371398D01*
Y147488D01*
D02*
G37*
G36*
X351713D02*
X345138D01*
Y139913D01*
X346423D01*
X346456Y139860D01*
X346503Y139744D01*
X346550Y139569D01*
X346588Y139336D01*
X346603Y139169D01*
Y131811D01*
X346588Y131644D01*
X346550Y131411D01*
X346503Y131236D01*
X346456Y131120D01*
X346423Y131067D01*
X344638D01*
Y123492D01*
X352213D01*
Y131067D01*
X350427D01*
X350395Y131120D01*
X350348Y131236D01*
X350301Y131411D01*
X350262Y131644D01*
X350248Y131811D01*
Y139169D01*
X350262Y139336D01*
X350301Y139569D01*
X350348Y139744D01*
X350395Y139860D01*
X350427Y139913D01*
X351713D01*
Y147488D01*
D02*
G37*
G36*
X494213Y127205D02*
X484764D01*
Y117756D01*
X494213D01*
Y127205D01*
D02*
G37*
G36*
X238189Y117779D02*
X237174Y117646D01*
X236228Y117254D01*
X236124Y117174D01*
X230411D01*
X230307Y117254D01*
X229361Y117646D01*
X228346Y117779D01*
X227332Y117646D01*
X226386Y117254D01*
X225574Y116631D01*
X224951Y115819D01*
X224559Y114873D01*
X224426Y113858D01*
X224559Y112844D01*
X224951Y111898D01*
X225574Y111086D01*
X226386Y110463D01*
X227332Y110071D01*
X228346Y109937D01*
X229361Y110071D01*
X230307Y110463D01*
X230411Y110543D01*
X236124D01*
X236228Y110463D01*
X237174Y110071D01*
X238189Y109937D01*
X239204Y110071D01*
X240149Y110463D01*
X240962Y111086D01*
X241585Y111898D01*
X241976Y112844D01*
X242110Y113858D01*
X241976Y114873D01*
X241585Y115819D01*
X240962Y116631D01*
X240149Y117254D01*
X239204Y117646D01*
X238189Y117779D01*
D02*
G37*
G36*
X202756D02*
X201741Y117646D01*
X200795Y117254D01*
X200691Y117174D01*
X193009D01*
X192905Y117254D01*
X191960Y117646D01*
X190945Y117779D01*
X189930Y117646D01*
X188984Y117254D01*
X188172Y116631D01*
X187549Y115819D01*
X187157Y114873D01*
X187024Y113858D01*
X187157Y112844D01*
X187549Y111898D01*
X188172Y111086D01*
X188984Y110463D01*
X189930Y110071D01*
X190945Y109937D01*
X191960Y110071D01*
X192905Y110463D01*
X193009Y110543D01*
X200691D01*
X200795Y110463D01*
X201741Y110071D01*
X202756Y109937D01*
X203771Y110071D01*
X204716Y110463D01*
X205528Y111086D01*
X206152Y111898D01*
X206543Y112844D01*
X206677Y113858D01*
X206543Y114873D01*
X206152Y115819D01*
X205528Y116631D01*
X204716Y117254D01*
X203771Y117646D01*
X202756Y117779D01*
D02*
G37*
G36*
X263779D02*
X262765Y117646D01*
X261819Y117254D01*
X261007Y116631D01*
X260384Y115819D01*
X259992Y114873D01*
X259859Y113858D01*
X259992Y112844D01*
X260384Y111898D01*
X261007Y111086D01*
X261819Y110463D01*
X262765Y110071D01*
X263779Y109937D01*
X264794Y110071D01*
X265740Y110463D01*
X265844Y110543D01*
X339166D01*
X339764Y110464D01*
X341182D01*
X342954Y110433D01*
X344114Y110358D01*
X344518Y110310D01*
X344638Y110288D01*
Y109992D01*
X345420D01*
X345437Y109989D01*
X345454Y109992D01*
X351396D01*
X351413Y109989D01*
X351430Y109992D01*
X352213D01*
Y110259D01*
X355365Y110464D01*
X357874D01*
X358732Y110577D01*
X359410Y110857D01*
X360381D01*
X361490Y110836D01*
X362841Y110734D01*
X363336Y110662D01*
X363718Y110580D01*
X363929Y110511D01*
Y109992D01*
X364711D01*
X364728Y109989D01*
X364746Y109992D01*
X370687D01*
X370705Y109989D01*
X370722Y109992D01*
X371504D01*
Y110511D01*
X371715Y110580D01*
X372070Y110656D01*
X374730Y110857D01*
X385827D01*
X386685Y110970D01*
X387485Y111302D01*
X388171Y111829D01*
X388698Y112515D01*
X389030Y113315D01*
X389142Y114173D01*
X389030Y115031D01*
X388698Y115831D01*
X388171Y116518D01*
X387485Y117045D01*
X386685Y117376D01*
X385827Y117489D01*
X374107D01*
X371525Y117510D01*
X371504Y117511D01*
Y117567D01*
X370722D01*
X370705Y117570D01*
X370687Y117567D01*
X370682D01*
X370666Y117569D01*
X370656Y117567D01*
X364746D01*
X364728Y117570D01*
X364721Y117569D01*
X364713Y117570D01*
X364539Y117567D01*
X363929D01*
Y117555D01*
X360407Y117489D01*
X358268D01*
X357410Y117376D01*
X356732Y117095D01*
X355669D01*
X353896Y117126D01*
X352737Y117201D01*
X352332Y117250D01*
X352213Y117271D01*
Y117567D01*
X351430D01*
X351413Y117570D01*
X351396Y117567D01*
X345454D01*
X345437Y117570D01*
X345420Y117567D01*
X344638D01*
Y117300D01*
X341485Y117095D01*
X340283D01*
X339685Y117174D01*
X265844D01*
X265740Y117254D01*
X264794Y117646D01*
X263779Y117779D01*
D02*
G37*
%LPD*%
G36*
X130221Y364201D02*
X129796Y363762D01*
X129134Y362988D01*
X128898Y362653D01*
X128724Y362352D01*
X128612Y362087D01*
X128564Y361856D01*
X128578Y361660D01*
X128655Y361499D01*
X128795Y361372D01*
X125356Y363566D01*
X125539Y363482D01*
X125743Y363449D01*
X125970Y363465D01*
X126220Y363532D01*
X126491Y363650D01*
X126785Y363818D01*
X127102Y364036D01*
X127440Y364304D01*
X127801Y364623D01*
X128185Y364993D01*
X130221Y364201D01*
D02*
G37*
G36*
X205890Y366821D02*
X206056Y364257D01*
X206132Y364070D01*
X206242Y363889D01*
X206372Y363748D01*
X206522Y363647D01*
X206692Y363587D01*
X206882Y363566D01*
X206141D01*
X206159Y363461D01*
X206259Y363028D01*
X206374Y362675D01*
X206505Y362401D01*
X206651Y362208D01*
X203113D01*
X203259Y362401D01*
X203390Y362675D01*
X203505Y363028D01*
X203605Y363461D01*
X203623Y363566D01*
X202882D01*
X203072Y363587D01*
X203242Y363647D01*
X203392Y363748D01*
X203522Y363889D01*
X203632Y364070D01*
X203720Y364286D01*
X203813Y365238D01*
X203874Y366821D01*
X203882Y367732D01*
X205882D01*
X205890Y366821D01*
D02*
G37*
G36*
X416250Y364596D02*
X416987Y363971D01*
X417312Y363743D01*
X417610Y363573D01*
X417878Y363458D01*
X418118Y363400D01*
X418330Y363399D01*
X418513Y363455D01*
X418667Y363566D01*
X415851Y360750D01*
X415963Y360905D01*
X416018Y361088D01*
X416017Y361299D01*
X415959Y361539D01*
X415845Y361808D01*
X415674Y362105D01*
X415446Y362431D01*
X415162Y362785D01*
X414425Y363579D01*
X415839Y364993D01*
X416250Y364596D01*
D02*
G37*
G36*
X420786Y357283D02*
X420616Y357223D01*
X420466Y357123D01*
X420336Y356983D01*
X420226Y356803D01*
X420136Y356583D01*
X420066Y356323D01*
X420016Y356023D01*
X419986Y355683D01*
X419976Y355303D01*
X417976D01*
X417966Y355683D01*
X417936Y356023D01*
X417886Y356323D01*
X417816Y356583D01*
X417726Y356803D01*
X417616Y356983D01*
X417486Y357123D01*
X417336Y357223D01*
X417166Y357283D01*
X416976Y357303D01*
X420976D01*
X420786Y357283D01*
D02*
G37*
G36*
X207898Y357253D02*
X207790Y357103D01*
X207694Y356853D01*
X207611Y356503D01*
X207541Y356053D01*
X207439Y354853D01*
X207388Y353253D01*
X207382Y352303D01*
X202382D01*
X202376Y353253D01*
X202152Y356503D01*
X202069Y356853D01*
X201974Y357103D01*
X201865Y357253D01*
X201744Y357303D01*
X208019D01*
X207898Y357253D01*
D02*
G37*
G36*
X207385Y331348D02*
X207650Y327348D01*
X207712Y327298D01*
X201736D01*
X201859Y327348D01*
X201969Y327498D01*
X202066Y327748D01*
X202150Y328098D01*
X202221Y328548D01*
X202324Y329748D01*
X202375Y331348D01*
X202382Y332298D01*
X207382D01*
X207385Y331348D01*
D02*
G37*
G36*
X207509Y325854D02*
X207408Y325597D01*
X207397Y325292D01*
X207476Y324939D01*
X207644Y324538D01*
X207902Y324090D01*
X208250Y323595D01*
X208688Y323051D01*
X209834Y321821D01*
X207212Y320200D01*
X206619Y320773D01*
X205544Y321679D01*
X205063Y322012D01*
X204620Y322265D01*
X204215Y322439D01*
X203847Y322532D01*
X203517Y322546D01*
X203224Y322480D01*
X202970Y322334D01*
X207700Y326064D01*
X207509Y325854D01*
D02*
G37*
G36*
X414756Y290110D02*
X414382Y289721D01*
X413787Y289014D01*
X413567Y288696D01*
X413399Y288402D01*
X413282Y288130D01*
X413216Y287883D01*
X413203Y287659D01*
X413241Y287458D01*
X413330Y287282D01*
X411014Y290598D01*
X411146Y290464D01*
X411312Y290391D01*
X411511Y290380D01*
X411743Y290430D01*
X412009Y290542D01*
X412309Y290715D01*
X412642Y290950D01*
X413009Y291247D01*
X413842Y292024D01*
X414756Y290110D01*
D02*
G37*
G36*
X177908Y359934D02*
X177852Y359753D01*
Y359544D01*
X177908Y359308D01*
X178019Y359043D01*
X178187Y358751D01*
X178409Y358431D01*
X178688Y358083D01*
X179411Y357303D01*
X178019Y355911D01*
X177616Y356301D01*
X176892Y356914D01*
X176572Y357136D01*
X176280Y357303D01*
X176015Y357415D01*
X175778Y357470D01*
X175570D01*
X175389Y357415D01*
X175236Y357303D01*
X178019Y360087D01*
X177908Y359934D01*
D02*
G37*
G36*
X196719Y328892D02*
X196748Y328557D01*
X196797Y328262D01*
X196866Y328006D01*
X196955Y327790D01*
X197063Y327612D01*
X197191Y327475D01*
X197339Y327376D01*
X197506Y327317D01*
X197693Y327298D01*
X193756D01*
X193943Y327317D01*
X194110Y327376D01*
X194258Y327475D01*
X194386Y327612D01*
X194494Y327790D01*
X194583Y328006D01*
X194652Y328262D01*
X194701Y328557D01*
X194730Y328892D01*
X194740Y329266D01*
X196709D01*
X196719Y328892D01*
D02*
G37*
G36*
X489999Y357283D02*
X489829Y357223D01*
X489679Y357123D01*
X489549Y356983D01*
X489439Y356803D01*
X489349Y356583D01*
X489279Y356323D01*
X489229Y356023D01*
X489199Y355683D01*
X489189Y355303D01*
X487189D01*
X487179Y355683D01*
X487149Y356023D01*
X487099Y356323D01*
X487029Y356583D01*
X486939Y356803D01*
X486829Y356983D01*
X486699Y357123D01*
X486549Y357223D01*
X486379Y357283D01*
X486189Y357303D01*
X490189D01*
X489999Y357283D01*
D02*
G37*
G36*
X196692D02*
X196522Y357223D01*
X196372Y357123D01*
X196242Y356983D01*
X196132Y356803D01*
X196042Y356583D01*
X195972Y356323D01*
X195922Y356023D01*
X195892Y355683D01*
X195882Y355303D01*
X193882D01*
X193872Y355683D01*
X193842Y356023D01*
X193792Y356323D01*
X193722Y356583D01*
X193632Y356803D01*
X193522Y356983D01*
X193392Y357123D01*
X193242Y357223D01*
X193072Y357283D01*
X192882Y357303D01*
X196882D01*
X196692Y357283D01*
D02*
G37*
G36*
X469199Y365196D02*
X469229Y364854D01*
X469279Y364552D01*
X469349Y364291D01*
X469439Y364070D01*
X469549Y363889D01*
X469679Y363748D01*
X469829Y363647D01*
X469999Y363587D01*
X470189Y363566D01*
X466189D01*
X466379Y363587D01*
X466549Y363647D01*
X466699Y363748D01*
X466829Y363889D01*
X466939Y364070D01*
X467029Y364291D01*
X467099Y364552D01*
X467149Y364854D01*
X467179Y365196D01*
X467189Y365579D01*
X469189D01*
X469199Y365196D01*
D02*
G37*
G36*
X469999Y357283D02*
X469829Y357223D01*
X469679Y357123D01*
X469549Y356983D01*
X469439Y356803D01*
X469349Y356583D01*
X469279Y356323D01*
X469229Y356023D01*
X469199Y355683D01*
X469189Y355303D01*
X467189D01*
X467179Y355683D01*
X467149Y356023D01*
X467099Y356323D01*
X467029Y356583D01*
X466939Y356803D01*
X466829Y356983D01*
X466699Y357123D01*
X466549Y357223D01*
X466379Y357283D01*
X466189Y357303D01*
X470189D01*
X469999Y357283D01*
D02*
G37*
G36*
X486056Y338558D02*
X486035Y338748D01*
X485975Y338918D01*
X485874Y339068D01*
X485734Y339198D01*
X485553Y339308D01*
X485331Y339398D01*
X485070Y339468D01*
X484768Y339518D01*
X484426Y339548D01*
X484044Y339558D01*
Y341558D01*
X484426Y341568D01*
X484768Y341598D01*
X485070Y341648D01*
X485331Y341718D01*
X485553Y341808D01*
X485734Y341918D01*
X485874Y342048D01*
X485975Y342198D01*
X486035Y342368D01*
X486056Y342558D01*
Y338558D01*
D02*
G37*
G36*
X288306Y340769D02*
X288957Y340228D01*
X289259Y340023D01*
X289545Y339861D01*
X289816Y339742D01*
X290071Y339667D01*
X290310Y339635D01*
X290533Y339646D01*
X290741Y339700D01*
X286729Y338169D01*
X286894Y338265D01*
X286992Y338402D01*
X287022Y338579D01*
X286983Y338797D01*
X286877Y339055D01*
X286703Y339354D01*
X286460Y339693D01*
X286150Y340072D01*
X285325Y340953D01*
X287957Y341104D01*
X288306Y340769D01*
D02*
G37*
G36*
X290439Y333187D02*
X290296Y333041D01*
X290169Y332874D01*
X290059Y332686D01*
X289967Y332475D01*
X289891Y332243D01*
X289832Y331990D01*
X289790Y331714D01*
X289764Y331417D01*
X289764Y331398D01*
X289764Y331378D01*
X289790Y331081D01*
X289832Y330805D01*
X289891Y330552D01*
X289967Y330320D01*
X290059Y330109D01*
X290169Y329921D01*
X290296Y329754D01*
X290439Y329609D01*
X290599Y329485D01*
X286944D01*
X287104Y329609D01*
X287248Y329754D01*
X287374Y329921D01*
X287484Y330109D01*
X287577Y330320D01*
X287652Y330552D01*
X287712Y330805D01*
X287754Y331081D01*
X287779Y331378D01*
X287779Y331398D01*
X287779Y331417D01*
X287754Y331714D01*
X287712Y331990D01*
X287652Y332243D01*
X287577Y332475D01*
X287484Y332686D01*
X287374Y332874D01*
X287248Y333041D01*
X287104Y333187D01*
X286944Y333310D01*
X290599D01*
X290439Y333187D01*
D02*
G37*
G36*
X157898Y357253D02*
X157790Y357103D01*
X157694Y356853D01*
X157611Y356503D01*
X157541Y356053D01*
X157439Y354853D01*
X157388Y353253D01*
X157382Y352303D01*
X152382D01*
X152375Y353253D01*
X152152Y356503D01*
X152069Y356853D01*
X151974Y357103D01*
X151865Y357253D01*
X151744Y357303D01*
X158019D01*
X157898Y357253D01*
D02*
G37*
G36*
X139882Y331543D02*
X139210Y330857D01*
X137619Y329050D01*
X137230Y328531D01*
X136912Y328055D01*
X136664Y327620D01*
X136488Y327227D01*
X136382Y326876D01*
X136346Y326567D01*
X131370Y331543D01*
X131679Y331578D01*
X132030Y331684D01*
X132423Y331861D01*
X132858Y332109D01*
X133335Y332427D01*
X133853Y332816D01*
X135016Y333806D01*
X136346Y335079D01*
X139882Y331543D01*
D02*
G37*
G36*
X290638Y323540D02*
X290549Y323487D01*
X290496Y323416D01*
X290479Y323325D01*
X290497Y323216D01*
X290550Y323087D01*
X290639Y322940D01*
X290763Y322774D01*
X290923Y322590D01*
X291118Y322386D01*
X289602Y322232D01*
X289411Y322415D01*
X289045Y322715D01*
X288870Y322833D01*
X288700Y322929D01*
X288535Y323002D01*
X288377Y323054D01*
X288223Y323084D01*
X288075Y323093D01*
X287932Y323079D01*
X290761Y323575D01*
X290638Y323540D01*
D02*
G37*
G36*
X323141Y322449D02*
X323125Y322443D01*
X323101Y322428D01*
X323069Y322404D01*
X322983Y322331D01*
X322720Y322081D01*
X322635Y321997D01*
X321800Y322832D01*
X321884Y322917D01*
X322246Y323322D01*
X322252Y323338D01*
X323141Y322449D01*
D02*
G37*
G36*
X236477Y226835D02*
X236525Y226541D01*
X236605Y226231D01*
X236718Y225905D01*
X236863Y225564D01*
X237040Y225207D01*
X237490Y224447D01*
X237764Y224043D01*
X238069Y223624D01*
X233277D01*
X233583Y224043D01*
X234098Y224835D01*
X234307Y225207D01*
X234629Y225905D01*
X234741Y226231D01*
X234822Y226541D01*
X234870Y226835D01*
X234886Y227114D01*
X236461D01*
X236477Y226835D01*
D02*
G37*
G36*
X238717Y221784D02*
X238910Y220953D01*
X239029Y220574D01*
X239164Y220219D01*
X239314Y219889D01*
X239480Y219584D01*
X239661Y219303D01*
X239858Y219046D01*
X240070Y218814D01*
X238678Y217422D01*
X238446Y217634D01*
X238189Y217831D01*
X237908Y218012D01*
X237603Y218178D01*
X237273Y218328D01*
X236918Y218463D01*
X236539Y218583D01*
X236136Y218687D01*
X235256Y218848D01*
X238644Y222237D01*
X238717Y221784D01*
D02*
G37*
G36*
X163648Y330170D02*
X163480Y330110D01*
X163333Y330012D01*
X163205Y329874D01*
X163096Y329697D01*
X163008Y329481D01*
X162939Y329225D01*
X162890Y328929D01*
X162860Y328595D01*
X162850Y328221D01*
X160882D01*
X160872Y328595D01*
X160843Y328929D01*
X160793Y329225D01*
X160724Y329481D01*
X160636Y329697D01*
X160528Y329874D01*
X160400Y330012D01*
X160252Y330110D01*
X160085Y330170D01*
X159898Y330189D01*
X163835D01*
X163648Y330170D01*
D02*
G37*
G36*
X162860Y323372D02*
X162890Y323035D01*
X162939Y322738D01*
X163008Y322480D01*
X163096Y322263D01*
X163205Y322084D01*
X163333Y321946D01*
X163480Y321847D01*
X163648Y321787D01*
X163835Y321767D01*
X159898D01*
X160085Y321787D01*
X160252Y321847D01*
X160400Y321946D01*
X160528Y322084D01*
X160636Y322263D01*
X160724Y322480D01*
X160793Y322738D01*
X160843Y323035D01*
X160872Y323372D01*
X160882Y323748D01*
X162850D01*
X162860Y323372D01*
D02*
G37*
G36*
X158890Y317087D02*
X158870Y317274D01*
X158811Y317441D01*
X158712Y317589D01*
X158573Y317717D01*
X158395Y317825D01*
X158177Y317913D01*
X157920Y317982D01*
X157623Y318032D01*
X157286Y318061D01*
X156910Y318071D01*
Y320039D01*
X157286Y320049D01*
X157623Y320079D01*
X157920Y320128D01*
X158177Y320197D01*
X158395Y320285D01*
X158573Y320394D01*
X158712Y320522D01*
X158811Y320669D01*
X158870Y320837D01*
X158890Y321024D01*
Y317087D01*
D02*
G37*
G36*
X135633Y320859D02*
X135904Y320687D01*
X136179Y320535D01*
X136455Y320404D01*
X136733Y320292D01*
X137013Y320201D01*
X137296Y320130D01*
X137581Y320080D01*
X137867Y320050D01*
X138156Y320039D01*
Y318071D01*
X137867Y318061D01*
X137581Y318030D01*
X137296Y317980D01*
X137013Y317909D01*
X136733Y317818D01*
X136455Y317706D01*
X136179Y317575D01*
X135904Y317423D01*
X135633Y317251D01*
X135363Y317058D01*
Y321052D01*
X135633Y320859D01*
D02*
G37*
G36*
X171880Y319247D02*
X171922Y319176D01*
X171992Y319081D01*
X172217Y318817D01*
X173002Y317992D01*
X173269Y317724D01*
X173125Y317581D01*
X173854Y317974D01*
X173765Y317904D01*
X173714Y317813D01*
X173701Y317701D01*
X173727Y317566D01*
X173792Y317410D01*
X173894Y317232D01*
X174036Y317032D01*
X174215Y316811D01*
X174689Y316303D01*
X173354Y315968D01*
X173134Y316179D01*
X172730Y316517D01*
X172546Y316643D01*
X172373Y316741D01*
X172212Y316810D01*
X172062Y316851D01*
X171924Y316864D01*
X171798Y316848D01*
X171684Y316803D01*
X172226Y317095D01*
X172165Y317155D01*
X170911Y318277D01*
X170865Y318291D01*
X171866Y319292D01*
X171880Y319247D01*
D02*
G37*
G36*
X188386Y295913D02*
X188417Y295372D01*
X188424Y295356D01*
X187166D01*
X187174Y295372D01*
X187180Y295399D01*
X187186Y295438D01*
X187195Y295550D01*
X187204Y295913D01*
X187205Y296033D01*
X188386D01*
X188386Y295913D01*
D02*
G37*
G36*
X320357Y336932D02*
X320933Y336490D01*
X321603Y336213D01*
X321533Y335720D01*
X309247D01*
X309176Y336213D01*
X309846Y336490D01*
X310422Y336932D01*
X314603Y341113D01*
X314979Y341603D01*
X315540Y341750D01*
X320357Y336932D01*
D02*
G37*
G36*
X350592Y287656D02*
X350444Y287507D01*
X349870Y286853D01*
X349827Y286785D01*
X349799Y286729D01*
X349786Y286684D01*
X348205Y288265D01*
X348250Y288278D01*
X348306Y288306D01*
X348374Y288349D01*
X348454Y288407D01*
X348649Y288568D01*
X349028Y288923D01*
X349178Y289071D01*
X350592Y287656D01*
D02*
G37*
G36*
X439423Y365196D02*
X439453Y364854D01*
X439503Y364552D01*
X439573Y364291D01*
X439663Y364070D01*
X439773Y363889D01*
X439903Y363748D01*
X440053Y363647D01*
X440223Y363587D01*
X440413Y363566D01*
X436413D01*
X436603Y363587D01*
X436773Y363647D01*
X436923Y363748D01*
X437053Y363889D01*
X437163Y364070D01*
X437253Y364291D01*
X437323Y364552D01*
X437373Y364854D01*
X437403Y365196D01*
X437413Y365579D01*
X439413D01*
X439423Y365196D01*
D02*
G37*
G36*
X439999Y357283D02*
X439829Y357223D01*
X439679Y357123D01*
X439549Y356983D01*
X439439Y356803D01*
X439349Y356583D01*
X439279Y356323D01*
X439229Y356023D01*
X439199Y355683D01*
X439189Y355303D01*
X437189D01*
X437179Y355683D01*
X437149Y356023D01*
X437099Y356323D01*
X437029Y356583D01*
X436939Y356803D01*
X436829Y356983D01*
X436699Y357123D01*
X436549Y357223D01*
X436379Y357283D01*
X436189Y357303D01*
X440189D01*
X439999Y357283D01*
D02*
G37*
G36*
X439199Y292228D02*
X439229Y291886D01*
X439279Y291584D01*
X439349Y291322D01*
X439439Y291101D01*
X439549Y290920D01*
X439679Y290779D01*
X439829Y290679D01*
X439999Y290618D01*
X440189Y290598D01*
X436189D01*
X436379Y290618D01*
X436549Y290679D01*
X436699Y290779D01*
X436829Y290920D01*
X436939Y291101D01*
X437029Y291322D01*
X437099Y291584D01*
X437149Y291886D01*
X437179Y292228D01*
X437189Y292610D01*
X439189D01*
X439199Y292228D01*
D02*
G37*
G36*
X428569Y365196D02*
X428599Y364854D01*
X428649Y364552D01*
X428719Y364291D01*
X428809Y364070D01*
X428919Y363889D01*
X429049Y363748D01*
X429199Y363647D01*
X429369Y363587D01*
X429559Y363566D01*
X425559D01*
X425749Y363587D01*
X425919Y363647D01*
X426069Y363748D01*
X426199Y363889D01*
X426309Y364070D01*
X426399Y364291D01*
X426469Y364552D01*
X426519Y364854D01*
X426549Y365196D01*
X426559Y365579D01*
X428559D01*
X428569Y365196D01*
D02*
G37*
G36*
X429999Y357283D02*
X429829Y357223D01*
X429679Y357123D01*
X429549Y356983D01*
X429439Y356803D01*
X429349Y356583D01*
X429279Y356323D01*
X429229Y356023D01*
X429199Y355683D01*
X429189Y355303D01*
X427189D01*
X427179Y355683D01*
X427149Y356023D01*
X427099Y356323D01*
X427029Y356583D01*
X426939Y356803D01*
X426829Y356983D01*
X426699Y357123D01*
X426549Y357223D01*
X426379Y357283D01*
X426189Y357303D01*
X430189D01*
X429999Y357283D01*
D02*
G37*
G36*
X428536Y290110D02*
X428216Y289783D01*
X427493Y288954D01*
X427331Y288728D01*
X427208Y288527D01*
X427125Y288352D01*
X427080Y288201D01*
X427075Y288076D01*
X427110Y287976D01*
X425488Y290598D01*
X425556Y290532D01*
X425654Y290510D01*
X425781Y290530D01*
X425937Y290594D01*
X426122Y290701D01*
X426335Y290851D01*
X426579Y291045D01*
X427152Y291561D01*
X427482Y291884D01*
X428536Y290110D01*
D02*
G37*
G36*
X408366Y276622D02*
X408346Y276812D01*
X408286Y276982D01*
X408186Y277132D01*
X408046Y277262D01*
X407866Y277372D01*
X407646Y277462D01*
X407386Y277532D01*
X407086Y277582D01*
X406746Y277612D01*
X406366Y277622D01*
Y279622D01*
X406746Y279632D01*
X407086Y279662D01*
X407386Y279712D01*
X407646Y279782D01*
X407866Y279872D01*
X408046Y279982D01*
X408186Y280112D01*
X408286Y280262D01*
X408346Y280432D01*
X408366Y280622D01*
Y276622D01*
D02*
G37*
G36*
X438254Y275634D02*
X438121Y275770D01*
X437954Y275844D01*
X437755Y275856D01*
X437522Y275807D01*
X437256Y275696D01*
X436956Y275524D01*
X436623Y275291D01*
X436257Y274995D01*
X435425Y274220D01*
X434511Y276134D01*
X434885Y276522D01*
X435477Y277227D01*
X435696Y277545D01*
X435863Y277839D01*
X435979Y278111D01*
X436043Y278358D01*
X436055Y278583D01*
X436016Y278784D01*
X435925Y278962D01*
X438254Y275634D01*
D02*
G37*
G36*
X424474D02*
X424341Y275770D01*
X424175Y275844D01*
X423975Y275856D01*
X423742Y275807D01*
X423476Y275696D01*
X423177Y275524D01*
X422844Y275291D01*
X422478Y274995D01*
X421646Y274220D01*
X420732Y276134D01*
X421105Y276522D01*
X421697Y277227D01*
X421916Y277545D01*
X422083Y277839D01*
X422199Y278111D01*
X422263Y278358D01*
X422276Y278583D01*
X422236Y278784D01*
X422146Y278962D01*
X424474Y275634D01*
D02*
G37*
G36*
X331949Y248000D02*
X331929Y248190D01*
X331869Y248360D01*
X331768Y248510D01*
X331627Y248640D01*
X331446Y248750D01*
X331225Y248840D01*
X330963Y248910D01*
X330662Y248960D01*
X330319Y248990D01*
X329937Y249000D01*
Y251000D01*
X330319Y251010D01*
X330662Y251040D01*
X330963Y251090D01*
X331225Y251160D01*
X331446Y251250D01*
X331627Y251360D01*
X331768Y251490D01*
X331869Y251640D01*
X331929Y251810D01*
X331949Y252000D01*
Y248000D01*
D02*
G37*
G36*
X323862Y251810D02*
X323923Y251640D01*
X324023Y251490D01*
X324164Y251360D01*
X324345Y251250D01*
X324567Y251160D01*
X324828Y251090D01*
X325130Y251040D01*
X325472Y251010D01*
X325854Y251000D01*
Y249000D01*
X325472Y248990D01*
X325130Y248960D01*
X324828Y248910D01*
X324567Y248840D01*
X324345Y248750D01*
X324164Y248640D01*
X324023Y248510D01*
X323923Y248360D01*
X323862Y248190D01*
X323842Y248000D01*
Y252000D01*
X323862Y251810D01*
D02*
G37*
G36*
X350235Y246992D02*
X350065Y246932D01*
X349915Y246832D01*
X349785Y246692D01*
X349675Y246512D01*
X349585Y246292D01*
X349515Y246032D01*
X349465Y245732D01*
X349435Y245392D01*
X349425Y245012D01*
X347425D01*
X347415Y245392D01*
X347385Y245732D01*
X347335Y246032D01*
X347265Y246292D01*
X347175Y246512D01*
X347065Y246692D01*
X346935Y246832D01*
X346785Y246932D01*
X346615Y246992D01*
X346425Y247012D01*
X350425D01*
X350235Y246992D01*
D02*
G37*
G36*
X344638Y252540D02*
Y246213D01*
X346351D01*
X346422Y246205D01*
X346422Y246205D01*
X346457Y246148D01*
X346503Y246035D01*
X346550Y245861D01*
X346588Y245631D01*
X346603Y245465D01*
Y230709D01*
X346603Y230709D01*
X346742Y230011D01*
X347136Y229420D01*
X347451Y229106D01*
X347381Y228794D01*
X347260Y228606D01*
X340248D01*
X340085Y229106D01*
X341687Y230707D01*
X342078Y231293D01*
X342216Y231984D01*
Y250772D01*
X344176Y252732D01*
X344638Y252540D01*
D02*
G37*
G36*
X228481Y221784D02*
X228673Y220953D01*
X228793Y220574D01*
X228928Y220219D01*
X229078Y219889D01*
X229244Y219584D01*
X229425Y219303D01*
X229622Y219046D01*
X229834Y218814D01*
X228442Y217422D01*
X228210Y217634D01*
X227953Y217831D01*
X227672Y218012D01*
X227367Y218178D01*
X227037Y218328D01*
X226682Y218463D01*
X226303Y218583D01*
X225900Y218687D01*
X225019Y218848D01*
X228408Y222237D01*
X228481Y221784D01*
D02*
G37*
G36*
X270562Y162588D02*
X270364Y162367D01*
X270185Y162116D01*
X270022Y161835D01*
X269877Y161524D01*
X269749Y161182D01*
X269639Y160811D01*
X269546Y160409D01*
X269471Y159977D01*
X269372Y159023D01*
X265734Y162143D01*
X266135Y162240D01*
X266885Y162479D01*
X267234Y162620D01*
X267566Y162776D01*
X267880Y162947D01*
X268177Y163132D01*
X268457Y163331D01*
X268719Y163546D01*
X268964Y163775D01*
X270562Y162588D01*
D02*
G37*
G36*
X260539Y162218D02*
X260327Y161985D01*
X260130Y161729D01*
X259948Y161448D01*
X259783Y161142D01*
X259632Y160812D01*
X259497Y160458D01*
X259378Y160079D01*
X259274Y159675D01*
X259113Y158795D01*
X255724Y162183D01*
X256176Y162256D01*
X257008Y162449D01*
X257387Y162568D01*
X257741Y162703D01*
X258071Y162854D01*
X258377Y163019D01*
X258658Y163201D01*
X258915Y163397D01*
X259147Y163610D01*
X260539Y162218D01*
D02*
G37*
G36*
X250302D02*
X250090Y161985D01*
X249893Y161729D01*
X249712Y161448D01*
X249547Y161142D01*
X249396Y160812D01*
X249261Y160458D01*
X249142Y160079D01*
X249038Y159675D01*
X248876Y158795D01*
X245488Y162183D01*
X245940Y162256D01*
X246772Y162449D01*
X247151Y162568D01*
X247505Y162703D01*
X247835Y162854D01*
X248141Y163019D01*
X248422Y163201D01*
X248678Y163397D01*
X248910Y163610D01*
X250302Y162218D01*
D02*
G37*
G36*
X486840Y233752D02*
X486533Y233975D01*
X486171Y234086D01*
X485754D01*
X485281Y233975D01*
X484752Y233752D01*
X484167Y233418D01*
X483527Y232973D01*
X482831Y232416D01*
X481272Y230968D01*
X478488Y233752D01*
X479267Y234559D01*
X480492Y236007D01*
X480938Y236647D01*
X481272Y237232D01*
X481495Y237761D01*
X481606Y238234D01*
Y238652D01*
X481495Y239014D01*
X481272Y239320D01*
X486840Y233752D01*
D02*
G37*
G36*
X412732Y228957D02*
X412851Y228622D01*
X413048Y228327D01*
X413324Y228071D01*
X413680Y227854D01*
X414114Y227677D01*
X414628Y227539D01*
X415220Y227441D01*
X415891Y227382D01*
X416642Y227362D01*
Y223425D01*
X415891Y223406D01*
X415220Y223346D01*
X414628Y223248D01*
X414114Y223110D01*
X413680Y222933D01*
X413324Y222716D01*
X413048Y222461D01*
X412851Y222165D01*
X412732Y221831D01*
X412692Y221457D01*
Y229331D01*
X412732Y228957D01*
D02*
G37*
G36*
X313291Y247496D02*
X313158Y247449D01*
X313039Y247370D01*
X312937Y247260D01*
X312850Y247118D01*
X312779Y246945D01*
X312724Y246740D01*
X312685Y246504D01*
X312661Y246236D01*
X312653Y245937D01*
X311079D01*
X311071Y246236D01*
X311047Y246504D01*
X311008Y246740D01*
X310953Y246945D01*
X310882Y247118D01*
X310795Y247260D01*
X310693Y247370D01*
X310575Y247449D01*
X310441Y247496D01*
X310291Y247512D01*
X313441D01*
X313291Y247496D01*
D02*
G37*
G36*
X270683Y225006D02*
X270497Y224798D01*
X270323Y224555D01*
X270161Y224279D01*
X270010Y223970D01*
X269871Y223626D01*
X269744Y223249D01*
X269525Y222393D01*
X269433Y221914D01*
X269353Y221401D01*
X265964Y224790D01*
X266477Y224870D01*
X267400Y225066D01*
X267812Y225181D01*
X268533Y225447D01*
X268842Y225598D01*
X269118Y225760D01*
X269361Y225934D01*
X269569Y226120D01*
X270683Y225006D01*
D02*
G37*
G36*
X193920Y226806D02*
X193985Y226519D01*
X194095Y226239D01*
X194248Y225966D01*
X194445Y225702D01*
X194686Y225445D01*
X194971Y225195D01*
X195299Y224954D01*
X195671Y224720D01*
X196087Y224494D01*
X191846Y222652D01*
X191862Y222743D01*
X191876Y222902D01*
X191916Y224214D01*
X191929Y226608D01*
X193898Y227102D01*
X193920Y226806D01*
D02*
G37*
G36*
X173719Y332384D02*
X173644Y332218D01*
X173632Y332019D01*
X173681Y331786D01*
X173792Y331519D01*
X173964Y331220D01*
X174198Y330887D01*
X174493Y330521D01*
X175268Y329689D01*
X173354Y328775D01*
X172967Y329148D01*
X172261Y329741D01*
X171943Y329960D01*
X171649Y330127D01*
X171378Y330242D01*
X171130Y330306D01*
X170905Y330319D01*
X170704Y330280D01*
X170526Y330189D01*
X173854Y332518D01*
X173719Y332384D01*
D02*
G37*
G36*
X184861Y226912D02*
X184915Y226616D01*
X185006Y226310D01*
X185133Y225994D01*
X185297Y225668D01*
X185496Y225333D01*
X185732Y224988D01*
X186005Y224633D01*
X186659Y223894D01*
X181899Y223328D01*
X182085Y223664D01*
X182396Y224339D01*
X182523Y224679D01*
X182630Y225020D01*
X182718Y225362D01*
X182786Y225706D01*
X182835Y226051D01*
X182864Y226397D01*
X182874Y226745D01*
X184843Y227198D01*
X184861Y226912D01*
D02*
G37*
G36*
X365555Y156685D02*
X366320Y156032D01*
X366653Y155798D01*
X366952Y155626D01*
X367219Y155516D01*
X367452Y155467D01*
X367651Y155479D01*
X367818Y155553D01*
X367951Y155689D01*
X365622Y152360D01*
X365713Y152538D01*
X365752Y152740D01*
X365739Y152964D01*
X365675Y153212D01*
X365560Y153483D01*
X365392Y153778D01*
X365174Y154096D01*
X364903Y154437D01*
X364581Y154801D01*
X364208Y155189D01*
X365122Y157103D01*
X365555Y156685D01*
D02*
G37*
G36*
X345870D02*
X346635Y156032D01*
X346968Y155798D01*
X347268Y155626D01*
X347534Y155516D01*
X347767Y155467D01*
X347966Y155479D01*
X348133Y155553D01*
X348266Y155689D01*
X345937Y152360D01*
X346028Y152538D01*
X346067Y152740D01*
X346054Y152964D01*
X345990Y153212D01*
X345875Y153483D01*
X345708Y153778D01*
X345489Y154096D01*
X345218Y154437D01*
X344897Y154801D01*
X344523Y155189D01*
X345437Y157103D01*
X345870Y156685D01*
D02*
G37*
G36*
X187539Y159118D02*
X187735Y158194D01*
X187850Y157783D01*
X188116Y157062D01*
X188267Y156752D01*
X188429Y156476D01*
X188603Y156234D01*
X188789Y156025D01*
X187675Y154912D01*
X187467Y155097D01*
X187225Y155271D01*
X186949Y155434D01*
X186639Y155584D01*
X186295Y155723D01*
X185918Y155850D01*
X185062Y156070D01*
X184583Y156161D01*
X184071Y156242D01*
X187459Y159630D01*
X187539Y159118D01*
D02*
G37*
G36*
X235084Y138101D02*
X235332Y137924D01*
X235617Y137759D01*
X235937Y137605D01*
X236294Y137464D01*
X236687Y137333D01*
X237581Y137108D01*
X238083Y137012D01*
X238621Y136928D01*
X235119Y133427D01*
X235035Y133964D01*
X234714Y135360D01*
X234584Y135753D01*
X234442Y136110D01*
X234288Y136430D01*
X234123Y136715D01*
X233947Y136963D01*
X233758Y137175D01*
X234872Y138289D01*
X235084Y138101D01*
D02*
G37*
G36*
X177303Y159118D02*
X177499Y158194D01*
X177614Y157783D01*
X177880Y157062D01*
X178031Y156752D01*
X178193Y156476D01*
X178367Y156234D01*
X178553Y156025D01*
X177439Y154912D01*
X177231Y155097D01*
X176988Y155271D01*
X176713Y155434D01*
X176403Y155584D01*
X176059Y155723D01*
X175682Y155850D01*
X174826Y156070D01*
X174347Y156161D01*
X173834Y156242D01*
X177223Y159630D01*
X177303Y159118D01*
D02*
G37*
G36*
X166144Y157036D02*
X165692Y156312D01*
X165508Y155959D01*
X165353Y155613D01*
X165226Y155274D01*
X165127Y154940D01*
X165057Y154613D01*
X165014Y154293D01*
X165000Y153979D01*
X163031D01*
X163017Y154293D01*
X162975Y154613D01*
X162904Y154940D01*
X162806Y155274D01*
X162679Y155613D01*
X162523Y155959D01*
X162340Y156312D01*
X162128Y156671D01*
X161620Y157407D01*
X166412D01*
X166144Y157036D01*
D02*
G37*
G36*
X165023Y139151D02*
X165092Y138873D01*
X165206Y138585D01*
X165366Y138286D01*
X165572Y137978D01*
X165823Y137659D01*
X166121Y137330D01*
X166464Y136991D01*
X167287Y136282D01*
X162494Y135054D01*
X162596Y135319D01*
X162688Y135599D01*
X162838Y136205D01*
X162897Y136531D01*
X162983Y137229D01*
X163026Y137988D01*
X163031Y138391D01*
X165000Y139418D01*
X165023Y139151D01*
D02*
G37*
G36*
X369527Y140705D02*
X369356Y140644D01*
X369207Y140544D01*
X369076Y140403D01*
X368967Y140222D01*
X368877Y140000D01*
X368807Y139739D01*
X368757Y139437D01*
X368726Y139095D01*
X368717Y138713D01*
X366717D01*
X366706Y139095D01*
X366676Y139437D01*
X366627Y139739D01*
X366557Y140000D01*
X366466Y140222D01*
X366356Y140403D01*
X366227Y140544D01*
X366076Y140644D01*
X365907Y140705D01*
X365717Y140725D01*
X369717D01*
X369527Y140705D01*
D02*
G37*
G36*
X368726Y131885D02*
X368757Y131543D01*
X368807Y131241D01*
X368877Y130980D01*
X368967Y130759D01*
X369076Y130577D01*
X369207Y130437D01*
X369356Y130336D01*
X369527Y130276D01*
X369717Y130255D01*
X365717D01*
X365907Y130276D01*
X366076Y130336D01*
X366227Y130437D01*
X366356Y130577D01*
X366466Y130759D01*
X366557Y130980D01*
X366627Y131241D01*
X366676Y131543D01*
X366706Y131885D01*
X366717Y132267D01*
X368717D01*
X368726Y131885D01*
D02*
G37*
G36*
X350235Y140705D02*
X350065Y140644D01*
X349915Y140544D01*
X349785Y140403D01*
X349675Y140222D01*
X349585Y140000D01*
X349515Y139739D01*
X349465Y139437D01*
X349435Y139095D01*
X349425Y138713D01*
X347425D01*
X347415Y139095D01*
X347385Y139437D01*
X347335Y139739D01*
X347265Y140000D01*
X347175Y140222D01*
X347065Y140403D01*
X346935Y140544D01*
X346785Y140644D01*
X346615Y140705D01*
X346425Y140725D01*
X350425D01*
X350235Y140705D01*
D02*
G37*
G36*
X349435Y131885D02*
X349465Y131543D01*
X349515Y131241D01*
X349585Y130980D01*
X349675Y130759D01*
X349785Y130577D01*
X349915Y130437D01*
X350065Y130336D01*
X350235Y130276D01*
X350425Y130255D01*
X346425D01*
X346615Y130276D01*
X346785Y130336D01*
X346935Y130437D01*
X347065Y130577D01*
X347175Y130759D01*
X347265Y130980D01*
X347335Y131241D01*
X347385Y131543D01*
X347415Y131885D01*
X347425Y132267D01*
X349425D01*
X349435Y131885D01*
D02*
G37*
G36*
X370755Y116750D02*
X370904Y116734D01*
X371504Y116707D01*
X375705Y116673D01*
Y111673D01*
X374755Y111664D01*
X371954Y111453D01*
X371504Y111356D01*
X371154Y111241D01*
X370904Y111109D01*
X370755Y110959D01*
X370705Y110792D01*
Y116768D01*
X370755Y116750D01*
D02*
G37*
G36*
X364728Y110792D02*
X364679Y110959D01*
X364528Y111109D01*
X364279Y111241D01*
X363929Y111356D01*
X363478Y111453D01*
X362929Y111532D01*
X361528Y111638D01*
X359729Y111673D01*
Y116673D01*
X364728Y116768D01*
Y110792D01*
D02*
G37*
G36*
X351463Y116675D02*
X351613Y116592D01*
X351863Y116519D01*
X352213Y116455D01*
X352663Y116402D01*
X353863Y116323D01*
X356413Y116279D01*
Y111279D01*
X355463Y111275D01*
X351863Y111040D01*
X351613Y110967D01*
X351463Y110884D01*
X351413Y110792D01*
Y116768D01*
X351463Y116675D01*
D02*
G37*
G36*
X345437Y110792D02*
X345387Y110884D01*
X345237Y110967D01*
X344987Y111040D01*
X344637Y111104D01*
X344187Y111158D01*
X342987Y111236D01*
X340437Y111279D01*
Y116279D01*
X341387Y116284D01*
X344987Y116519D01*
X345237Y116592D01*
X345387Y116675D01*
X345437Y116768D01*
Y110792D01*
D02*
G37*
D10*
X308457Y308898D02*
D03*
Y313898D02*
D03*
Y318898D02*
D03*
Y323898D02*
D03*
Y328898D02*
D03*
Y333898D02*
D03*
Y338898D02*
D03*
X288772Y308898D02*
D03*
Y313898D02*
D03*
Y318898D02*
D03*
Y323898D02*
D03*
Y328898D02*
D03*
Y333898D02*
D03*
D11*
Y338898D02*
D03*
D12*
X334925Y250000D02*
D03*
X348425D02*
D03*
D13*
X311866D02*
D03*
X320866D02*
D03*
X161866Y319291D02*
D03*
X170866D02*
D03*
X161866Y332677D02*
D03*
X170866D02*
D03*
X204724Y324810D02*
D03*
X195724D02*
D03*
X498032Y340558D02*
D03*
X489032D02*
D03*
D14*
X348425Y127279D02*
D03*
Y113779D02*
D03*
X367717Y127279D02*
D03*
Y113779D02*
D03*
X123071Y159213D02*
D03*
D15*
X348425Y152701D02*
D03*
Y143701D02*
D03*
X368110Y152701D02*
D03*
Y143701D02*
D03*
X438413Y287622D02*
D03*
Y278622D02*
D03*
X424634Y287622D02*
D03*
Y278622D02*
D03*
X410854Y287622D02*
D03*
Y278622D02*
D03*
D16*
X438425Y472992D02*
X438976Y472441D01*
X428976D02*
X429016Y472480D01*
X418976Y472378D02*
X419606Y473008D01*
X144921Y473189D02*
X145669Y472441D01*
X135512Y488622D02*
X135669Y488465D01*
X125669Y472378D02*
X126102Y472811D01*
X288051Y328177D02*
X288772Y328898D01*
X262992Y328177D02*
X288051D01*
X288772Y328898D02*
Y333898D01*
X277276Y350394D02*
X288772Y338898D01*
X269291Y350394D02*
X277276D01*
X340409Y231984D02*
Y251520D01*
X338693Y230268D02*
X340409Y231984D01*
X327017Y230268D02*
X338693D01*
X164016Y135197D02*
X165354Y133858D01*
X164016Y135197D02*
Y159213D01*
X340409Y251520D02*
X367512Y278622D01*
X235673Y221819D02*
X250012Y207480D01*
X289370D01*
X225437Y221819D02*
X249618Y197638D01*
X289370D01*
X266378Y159213D02*
Y159797D01*
X329896Y223315D01*
X256142Y159213D02*
X260748Y163819D01*
X264236D01*
X264402Y163984D01*
X265638D01*
X328453Y226799D01*
X245905Y159213D02*
X253701Y167008D01*
X263757D01*
X327017Y230268D01*
X192913Y223634D02*
X194728Y221819D01*
X192913Y223634D02*
Y259055D01*
X183858Y222453D02*
X184492Y221819D01*
X183858Y222453D02*
Y259842D01*
X328453Y226799D02*
X350253D01*
X350269Y226815D01*
X195724Y324810D02*
Y339598D01*
X174882Y360441D02*
X195724Y339598D01*
X161866Y319291D02*
Y332677D01*
X133858Y319055D02*
X161630D01*
D17*
X438425Y472992D02*
Y488543D01*
X429016Y472480D02*
Y488543D01*
X419606Y473008D02*
Y488543D01*
X144921Y473189D02*
Y488622D01*
X135669Y472441D02*
Y488465D01*
X126102Y472811D02*
Y488622D01*
X308457Y338898D02*
X312638Y343079D01*
Y348583D01*
X322323Y338898D01*
X342835D01*
X472913Y225394D02*
X487165Y239646D01*
X406811Y225394D02*
X472913D01*
X458189Y344016D02*
Y360441D01*
X498189Y340715D02*
Y360441D01*
X488346Y261811D02*
X498032Y271496D01*
Y340558D01*
D18*
X418976Y461724D02*
Y472378D01*
Y461724D02*
X425100Y455600D01*
X358268Y114173D02*
X385827D01*
X153779Y159213D02*
X156693Y156299D01*
X133311Y179681D02*
X153779Y159213D01*
X133311Y179681D02*
Y221819D01*
X118032Y237098D02*
X133311Y221819D01*
X156693Y122520D02*
Y156299D01*
X118032Y237098D02*
Y324331D01*
X154882Y350079D02*
Y360441D01*
X133858Y329055D02*
X154882Y350079D01*
X498189Y360441D02*
Y388511D01*
X494016Y392684D02*
X498189Y388511D01*
X494016Y392684D02*
Y472441D01*
X145669Y458569D02*
Y472441D01*
X139800Y452700D02*
X145669Y458569D01*
X130700Y452700D02*
X139800D01*
X125669Y457731D02*
X130700Y452700D01*
X125669Y457731D02*
Y472378D01*
X438976Y461776D02*
Y472441D01*
X432800Y455600D02*
X438976Y461776D01*
X425100Y455600D02*
X432800D01*
X438976Y472441D02*
X484016D01*
X204882Y324967D02*
Y360441D01*
X484016Y472441D02*
X494016D01*
X145669D02*
X190709D01*
X200709D01*
X212520Y484252D01*
X296744D01*
X122756Y329055D02*
X133858D01*
X118032Y324331D02*
X122756Y329055D01*
X348425Y113779D02*
X357874D01*
X339764D02*
X348425D01*
X263779Y113858D02*
X339685D01*
X228346D02*
X238189D01*
X190945D02*
X202756D01*
X156693Y122520D02*
X165354Y113858D01*
D19*
X303150Y321496D02*
X321299D01*
X302677Y321969D02*
X303150Y321496D01*
X321299D02*
X323031Y323228D01*
X290701Y321969D02*
X302677D01*
X288772Y323898D02*
X290701Y321969D01*
X187795Y294882D02*
Y302362D01*
X170866Y319291D02*
X187795Y302362D01*
D20*
X348425Y230709D02*
Y250000D01*
Y230709D02*
X348819Y230315D01*
X329896Y223315D02*
X351718D01*
X468189Y360441D02*
Y370866D01*
Y346535D02*
Y360441D01*
X415091Y255300D02*
X438413Y278622D01*
X383703Y255300D02*
X415091D01*
X351718Y223315D02*
X383703Y255300D01*
X414912Y268900D02*
X424634Y278622D01*
X392354Y268900D02*
X414912D01*
X350269Y226815D02*
X392354Y268900D01*
X367512Y278622D02*
X410854D01*
X396117Y383300D02*
X418976Y360441D01*
X125669Y361063D02*
X147906Y383300D01*
X396117D01*
X204882Y360441D02*
Y379800D01*
X488189Y351511D02*
X488200Y351500D01*
X488189Y351511D02*
Y360441D01*
X125669D02*
Y361063D01*
X427559Y361071D02*
Y378500D01*
X372602Y311081D02*
Y324698D01*
X363402Y333898D02*
X372602Y324698D01*
X308457Y333898D02*
X363402D01*
X348400Y286879D02*
X372602Y311081D01*
X235827Y375197D02*
X238189Y377559D01*
X235827Y327165D02*
Y375197D01*
X223228Y374016D02*
X226772Y377559D01*
X223228Y327165D02*
Y374016D01*
X207480Y273622D02*
Y312992D01*
X192913Y259055D02*
X207480Y273622D01*
X201969Y277953D02*
Y312992D01*
X183858Y259842D02*
X201969Y277953D01*
X487402Y361228D02*
X488189Y360441D01*
X442913Y323228D02*
X472047D01*
X194882Y350394D02*
Y360441D01*
X427559Y361071D02*
X428189Y360441D01*
X306744Y484252D02*
X316587Y494095D01*
X324535D01*
X458189Y360441D01*
X301969Y295276D02*
Y310236D01*
X293307Y318898D02*
X301969Y310236D01*
X224803Y246063D02*
X268504Y289764D01*
X288772Y318898D02*
X293307D01*
X339370Y172835D02*
X347976D01*
X368110Y152701D01*
X332677Y164567D02*
X336559D01*
X348425Y152701D01*
X367717Y127279D02*
Y143307D01*
X368110Y143701D01*
X498032Y340558D02*
X498189Y340715D01*
X438189Y360441D02*
X438413Y360665D01*
Y370866D01*
X418976Y295744D02*
Y360441D01*
X410854Y287622D02*
X418976Y295744D01*
X438189Y287846D02*
X438413Y287622D01*
X438189Y287846D02*
Y360441D01*
X424634Y287622D02*
X428189Y291177D01*
Y360441D01*
X474167Y340558D02*
X489032D01*
X468189Y346535D02*
X474167Y340558D01*
X288772Y308898D02*
X289528D01*
X320866Y250000D02*
X334925D01*
X198224Y295276D02*
Y305319D01*
X170866Y332677D02*
X198224Y305319D01*
X170866Y319291D02*
X171260Y319685D01*
X204724Y324810D02*
X204882Y324967D01*
X161630Y319055D02*
X161866Y319291D01*
X133858Y319055D02*
X134095Y319291D01*
X348425Y127279D02*
Y143701D01*
X357874Y113779D02*
X358268Y114173D01*
X339685Y113858D02*
X339764Y113779D01*
X165354Y133858D02*
X165748Y134252D01*
X385547Y114453D02*
X385827Y114173D01*
D21*
X231496Y140551D02*
X238189Y133858D01*
X203150Y140551D02*
X231496D01*
X184488Y159213D02*
X203150Y140551D01*
X199606Y133858D02*
X202756D01*
X174252Y159213D02*
X199606Y133858D01*
X266382Y221819D02*
X275327Y230764D01*
X311866D01*
X235673Y221819D02*
Y228980D01*
X311866Y230764D02*
Y250000D01*
X235673Y228980D02*
X301969Y295276D01*
D22*
X202756Y133858D02*
Y134252D01*
D23*
X204724Y324810D02*
X220636Y308898D01*
X288772D01*
D24*
X438425Y488543D02*
D03*
X419606D02*
D03*
X429016D02*
D03*
X144921Y488622D02*
D03*
X126102D02*
D03*
X135512D02*
D03*
D25*
X489488Y148071D02*
D03*
Y122480D02*
D03*
D26*
X406811Y189961D02*
D03*
Y225394D02*
D03*
X487520Y175984D02*
D03*
X487165Y239646D02*
D03*
D27*
X133307Y159213D02*
D03*
X143543D02*
D03*
X153779D02*
D03*
X164016D02*
D03*
X174252D02*
D03*
X184488D02*
D03*
X194724D02*
D03*
X204961D02*
D03*
X215197D02*
D03*
X225433D02*
D03*
X235669D02*
D03*
X245905D02*
D03*
X256142D02*
D03*
X266378D02*
D03*
X266382Y221819D02*
D03*
X256146D02*
D03*
X245909D02*
D03*
X235673D02*
D03*
X225437D02*
D03*
X215201D02*
D03*
X204965D02*
D03*
X194728D02*
D03*
X184492D02*
D03*
X174256D02*
D03*
X164020D02*
D03*
X153784D02*
D03*
X143547D02*
D03*
X133311D02*
D03*
X123075D02*
D03*
D28*
X190945Y113858D02*
D03*
X165354D02*
D03*
X190945Y133858D02*
D03*
X165354D02*
D03*
X202756D02*
D03*
X228346D02*
D03*
X202756Y113858D02*
D03*
X228346D02*
D03*
X238189Y133858D02*
D03*
X263779D02*
D03*
X238189Y113858D02*
D03*
X263779D02*
D03*
D29*
X296744Y484252D02*
D03*
X326772Y484252D02*
D03*
X306744Y484252D02*
D03*
X316744D02*
D03*
D30*
X498347Y261811D02*
D03*
X381890Y206535D02*
D03*
X133858Y319055D02*
D03*
Y309055D02*
D03*
X385827Y114173D02*
D03*
D31*
X488346Y261811D02*
D03*
D32*
X381890Y216535D02*
D03*
X133858Y329055D02*
D03*
D33*
X428189Y360441D02*
D03*
X418976D02*
D03*
X438189D02*
D03*
X448189D02*
D03*
X458189D02*
D03*
X468189D02*
D03*
X478189D02*
D03*
X488189D02*
D03*
X498189D02*
D03*
X418976Y472378D02*
D03*
X428976Y472441D02*
D03*
X438976D02*
D03*
X484016D02*
D03*
X494016D02*
D03*
X134882Y360441D02*
D03*
X125669D02*
D03*
X144882D02*
D03*
X154882D02*
D03*
X164882D02*
D03*
X174882D02*
D03*
X184882D02*
D03*
X194882D02*
D03*
X204882D02*
D03*
X125669Y472378D02*
D03*
X135669Y472441D02*
D03*
X145669D02*
D03*
X190709D02*
D03*
X200709D02*
D03*
D34*
X312638Y348583D02*
D03*
X348400Y286879D02*
D03*
D35*
X323031Y323228D02*
D03*
X204882Y379800D02*
D03*
X488200Y351500D02*
D03*
X427559Y378500D02*
D03*
X235827Y327165D02*
D03*
X223228D02*
D03*
X238189Y377559D02*
D03*
X226772D02*
D03*
X207480Y312992D02*
D03*
X201969D02*
D03*
X472047Y323228D02*
D03*
X442913D02*
D03*
X194882Y350394D02*
D03*
X468189Y370866D02*
D03*
X268504Y289764D02*
D03*
X224803Y246063D02*
D03*
X289370Y197638D02*
D03*
X339370Y172835D02*
D03*
X332677Y164567D02*
D03*
X289370Y207480D02*
D03*
X342835Y338898D02*
D03*
X458189Y344016D02*
D03*
X438413Y370866D02*
D03*
X348819Y230315D02*
D03*
X198224Y295276D02*
D03*
X187795Y294882D02*
D03*
X262992Y328177D02*
D03*
D36*
X269291Y350394D02*
D03*
M02*
